<svg xmlns="http://www.w3.org/2000/svg" width="21.084" height="25" viewBox="0 0 21.084 25">
  <path id="Apple_logo_black" d="M17.723,24.993c-1.356,1.316-2.852,1.111-4.278.49a5.42,5.42,0,0,0-4.5,0c-1.994.861-3.052.61-4.253-.49C-2.092,18.013-1.091,7.38,6.615,6.98c1.869.1,3.177,1.033,4.278,1.111,1.636-.333,3.2-1.286,4.954-1.161a6.034,6.034,0,0,1,4.729,2.494,5.5,5.5,0,0,0,.673,9.908,14.063,14.063,0,0,1-3.528,5.679ZM10.743,6.9a5.7,5.7,0,0,1,5.2-5.9C16.345,4.578,12.694,7.255,10.743,6.9Z" transform="translate(-0.164 -1)"/>
</svg>
