<svg xmlns="http://www.w3.org/2000/svg" width="15" height="13.846" viewBox="0 0 15 13.846">
  <g id="Icon_ionic-ios-briefcase" data-name="Icon ionic-ios-briefcase" transform="translate(-3.375 -4.5)">
    <path id="Path_183" data-name="Path 183" d="M4.529,23.827H17.221a1.153,1.153,0,0,0,1.154-1.154V15.75h-15v6.923A1.153,1.153,0,0,0,4.529,23.827Z" transform="translate(0 -5.481)" fill="#fff"/>
    <path id="Path_184" data-name="Path 184" d="M17.221,6.808h-.288V6.519a.289.289,0,0,0-.288-.288H15.49a.289.289,0,0,0-.288.288v.288h-1.01V5.654A1.157,1.157,0,0,0,13.038,4.5H8.712A1.157,1.157,0,0,0,7.558,5.654V6.808H6.548V6.519a.289.289,0,0,0-.288-.288H5.106a.289.289,0,0,0-.288.288v.288H4.529A1.153,1.153,0,0,0,3.375,7.962V9.4h15V7.962A1.153,1.153,0,0,0,17.221,6.808Zm-4.038,0H8.567V5.8a.289.289,0,0,1,.288-.288h4.038a.289.289,0,0,1,.288.288Z" fill="#fff"/>
  </g>
</svg>
