<svg xmlns="http://www.w3.org/2000/svg" width="145.352" height="140" viewBox="0 0 145.352 140">
  <g id="Group_3674" data-name="Group 3674" transform="translate(-20.186 -21.285)">
    <g id="Group_3760" data-name="Group 3760" transform="translate(20.186 21.285)">
      <g id="Group_3674-2" data-name="Group 3674" transform="translate(90.941 100.95)">
        <path id="Path_276" data-name="Path 276" d="M2315.339,2507.9c.464.605,17.691,18.1,12.639,27.154-3.6,6.445-25.3,4.342-25.3,4.342l-2.979-19.079Z" transform="translate(-2299.694 -2507.902)" fill="#f9a528"/>
      </g>
      <g id="Group_3675" data-name="Group 3675" transform="translate(89.789 99.438)">
        <path id="Path_277" data-name="Path 277" d="M2292.733,2517.518c-3.9,0-7.082-.28-7.912-.361l-.825-.079-3.2-20.513,16.982-13.479.653.851c.05.057.164.181.334.365,6.513,7.073,16.786,20.114,12.4,27.972C2308.721,2516.647,2299.607,2517.518,2292.733,2517.518Zm-6.882-2.416c6.377.52,20.892.7,23.444-3.871,2.7-4.837-1.608-14-11.824-25.175l-14.374,11.408Z" transform="translate(-2280.793 -2483.086)" fill="#000072"/>
      </g>
      <g id="Group_3676" data-name="Group 3676" transform="translate(15.385 83.678)">
        <path id="Path_278" data-name="Path 278" d="M1061.145,2224.489l-1.259.75c.066.177.132.345.206.513.059.148.128.3.191.448a.464.464,0,0,0,.033.079q.135.318.283.622l3.307-1.964Z" transform="translate(-1059.886 -2224.489)" fill="#f9a528"/>
      </g>
      <g id="Group_3684" data-name="Group 3684" transform="translate(10.014 51.368)">
        <g id="Group_3677" data-name="Group 3677" transform="translate(1.072 1.07)">
          <path id="Path_279" data-name="Path 279" d="M989.952,1738.834A45.413,45.413,0,0,0,992.1,1747c.063.176.129.355.2.529.128.333.251.646.383.939.159.384.316.744.486,1.093.066.146.135.295.2.438a.7.7,0,0,0,.04.078c.1.207.2.409.3.6l5.076-3.292.55-.359,2.985.359c-.369-.525-.722-1.068-1.055-1.617l6.144-4,6.8-4.42c-7.487-5.358-9.8-16.742-10.275-23a2.692,2.692,0,0,0-4.049-2.1,17.551,17.551,0,0,0-1.549.987c-.229.156-.455.324-.685.506s-.457.36-.693.553a20.056,20.056,0,0,0-2.176,2.112c-.212.245-.426.495-.633.759-.136.167-.272.333-.4.515-.153.194-.3.4-.439.607-.126.184-.26.373-.385.563C990.153,1723.147,988.354,1729.514,989.952,1738.834Z" transform="translate(-989.351 -1711.874)" fill="#f5f5f5"/>
        </g>
        <g id="Group_3679" data-name="Group 3679" transform="translate(8.275 1.07)" opacity="0.5">
          <g id="Group_3678" data-name="Group 3678">
            <path id="Path_280" data-name="Path 280" d="M1112.69,1746.466c-.147-.229-.293-.459-.434-.691l.685-.446c-.073-.117-.149-.233-.22-.352l12.126-7.887c-7.205-5.459-9.453-16.577-9.924-22.739a2.692,2.692,0,0,0-4.049-2.1c-.4.229-.824.489-1.253.782.885.15,2.546-.079,2.594.587.481,6.265.781,18.811,8.267,24.173l-12.94,8.417c.307.514.635,1.02.977,1.509l2.272-1.477Z" transform="translate(-1107.543 -1711.874)" fill="#fff"/>
          </g>
        </g>
        <g id="Group_3681" data-name="Group 3681" transform="translate(1.071 1.07)">
          <g id="Group_3680" data-name="Group 3680">
            <path id="Path_281" data-name="Path 281" d="M992.286,1747.526c.124.332.252.646.384.938.155.382.314.744.484,1.092.064.147.135.3.2.437a.341.341,0,0,0,.04.079c.1.21.2.41.3.607l5.075-3.3c-2.259-4.994-4.382-11.522-4.035-16.064.944-12.376,6.178-17.6,7.23-19.352a2.691,2.691,0,0,0-2.1.271,17.785,17.785,0,0,0-1.549.99c-.229.156-.458.323-.685.506s-.458.361-.694.553a19.622,19.622,0,0,0-2.809,2.869c-.138.167-.273.334-.4.514-.151.194-.3.4-.44.607-.127.184-.259.375-.383.566-2.769,4.295-4.572,10.665-2.972,19.981a45.553,45.553,0,0,0,2.144,8.172C992.148,1747.173,992.216,1747.351,992.286,1747.526Z" transform="translate(-989.341 -1711.865)" fill="#fff"/>
          </g>
        </g>
        <g id="Group_3682" data-name="Group 3682">
          <path id="Path_282" data-name="Path 282" d="M977.2,1735.267a1.055,1.055,0,0,1-.265-.033,1.068,1.068,0,0,1-.676-.529c-.109-.2-.214-.411-.316-.625a1.5,1.5,0,0,1-.065-.137c-.068-.14-.138-.288-.2-.432-.168-.349-.333-.72-.491-1.107-.126-.283-.257-.6-.4-.979-.068-.163-.142-.36-.21-.552a46.82,46.82,0,0,1-2.187-8.347c-1.433-8.33-.381-15.309,3.126-20.743.13-.2.266-.4.4-.592.154-.225.314-.446.473-.652.13-.178.277-.365.433-.551a20.509,20.509,0,0,1,2.941-3c.245-.207.492-.4.728-.581s.476-.362.734-.538c.535-.38,1.086-.733,1.62-1.038a3.759,3.759,0,0,1,3.655-.074,3.721,3.721,0,0,1,1.989,3.03c.29,3.766,1.855,16.5,9.834,22.216a1.069,1.069,0,0,1-.04,1.765l-20.5,13.331A1.063,1.063,0,0,1,977.2,1735.267Zm7.537-38.817a1.644,1.644,0,0,0-.828.229c-.481.274-.971.589-1.465.939-.237.162-.442.313-.642.471l-.026.02c-.2.15-.418.322-.641.511a18.506,18.506,0,0,0-2.66,2.718c-.144.172-.263.324-.381.484-.149.194-.285.382-.418.577-.123.178-.247.358-.365.542-3.207,4.969-4.155,11.436-2.816,19.222a44.683,44.683,0,0,0,2.09,7.979c.062.176.124.34.189.5.141.37.258.657.369.9l.015.034c.144.354.294.691.457,1.031l.016.035,6.54-4.256h0l11.693-7.6c-7.678-6.582-9.216-19.032-9.509-22.84a1.576,1.576,0,0,0-.853-1.3A1.633,1.633,0,0,0,984.735,1696.45Z" transform="translate(-971.765 -1694.314)" fill="#132342"/>
        </g>
        <g id="Group_3683" data-name="Group 3683" transform="translate(1.072 5.601)" opacity="0.3">
          <path id="Path_283" data-name="Path 283" d="M989.952,1808.657a45.429,45.429,0,0,0,2.145,8.17c.063.176.129.354.2.529.128.332.251.647.383.94.159.383.316.744.486,1.092.066.146.135.3.2.438a.657.657,0,0,0,.04.078c.1.207.2.409.3.605l5.076-3.293.55-.359,2.985.359c-.369-.526-.722-1.068-1.055-1.618l6.144-4c-5.33-3.78-15.977-13.1-12.631-25.371-.212.245-.426.494-.633.758-.136.166-.272.333-.4.515-.153.194-.3.4-.439.607-.126.184-.26.373-.385.563C990.153,1792.97,988.354,1799.338,989.952,1808.657Z" transform="translate(-989.351 -1786.228)" fill="#000072"/>
        </g>
      </g>
      <g id="Group_3685" data-name="Group 3685" transform="translate(1.071 64.924)">
        <path id="Path_284" data-name="Path 284" d="M883.262,1930.525s-3.738-17.208-21.045-13.158c-25.684,6.01-54.026,48.936-24.87,63.9,14.031,7.2,81.938,8.374,86.914-2.311,4.668-10.023,6.464-30.078,6.464-30.078Z" transform="translate(-825.007 -1916.749)" fill="#f9a528"/>
      </g>
      <g id="Group_3686" data-name="Group 3686" transform="translate(1.071 64.924)">
        <path id="Path_285" data-name="Path 285" d="M930.729,1948.883s-.289,3.226-.938,7.739c-.964,6.736-2.732,16.335-5.526,22.338-4.977,10.683-72.885,9.51-86.914,2.311-29.159-14.967-.815-57.892,24.869-63.9,11.7-2.738,17.2,4.236,19.529,9.044a20.259,20.259,0,0,1,1.516,4.115Z" transform="translate(-825.009 -1916.752)" fill="#f5f5f5"/>
      </g>
      <g id="Group_3687" data-name="Group 3687" transform="translate(1.07 106.896)" opacity="0.3">
        <path id="Path_286" data-name="Path 286" d="M884.612,2629.159l-1.236,4.413c-19.108.08-39.118-2.005-46.034-5.555-9.965-5.114-13.214-13.491-12.15-22.546.844,6.564,4.536,12.378,12.15,16.285,1.782.916,14.238,4.9,20.292.112,4.508-3.567,11.91-14.13,18.331-15.705-5.005,10.522-2.771,20.141,2.463,21.728A36.634,36.634,0,0,0,884.612,2629.159Z" transform="translate(-825 -2605.471)" fill="#000072"/>
      </g>
      <g id="Group_3689" data-name="Group 3689" transform="translate(4.475 64.924)" opacity="0.5">
        <g id="Group_3688" data-name="Group 3688">
          <path id="Path_287" data-name="Path 287" d="M983.18,1948.883s-.149,1.65-.469,4.242l-46.678-18.053s-3.958-18.219-22.283-13.932c-12.384,2.9-25.352,13.9-32.886,26.522,6.312-14,20.421-27.16,33.807-30.292,17.307-4.05,21.045,13.16,21.045,13.16Z" transform="translate(-880.864 -1916.753)" fill="#fff"/>
        </g>
      </g>
      <g id="Group_3690" data-name="Group 3690" transform="translate(71.986 84.398)">
        <path id="Path_288" data-name="Path 288" d="M2023.456,2248.959s-1.8,20.052-6.464,30.077c-1.59,3.412-9.6,5.614-20.23,6.8a5.608,5.608,0,0,1,2.163-2.8c11.715-9.451-11.81-21.3-10.194-38.884a26.907,26.907,0,0,1,1.993-7.851Z" transform="translate(-1988.65 -2236.303)" fill="#fff"/>
      </g>
      <g id="Group_3691" data-name="Group 3691" transform="translate(52.279 73.956)" opacity="0.3">
        <path id="Path_289" data-name="Path 289" d="M1719.8,2088.051s-.289,3.226-.938,7.74c-8.992,1.594-23.125,2.574-37.726-2.405-9.061-3.089-15.848-10.423-15.848-10.423l1.65-18.01,3.881.629a20.255,20.255,0,0,1,1.516,4.116Z" transform="translate(-1665.288 -2064.953)" fill="#000072"/>
      </g>
      <g id="Group_3692" data-name="Group 3692" transform="translate(0 63.854)">
        <path id="Path_290" data-name="Path 290" d="M866.059,1971.412q-3.476,0-7.1-.094c-14.124-.373-31.681-2.036-38.6-5.586-12.146-6.234-13.612-16.372-12.7-23.78,1.042-8.485,5.87-18.047,13.246-26.234,7.348-8.156,16.3-13.943,24.571-15.878,5.421-1.269,10.138-.668,14.02,1.785,5.556,3.511,7.639,9.7,8.168,11.616l47.7,18.446-.072.8c-.074.826-1.866,20.356-6.56,30.433-.852,1.829-3.041,3.327-6.69,4.578C894.735,1970.006,881.59,1971.412,866.059,1971.412Zm-15.32-70.078a20.985,20.985,0,0,0-4.775.588c-16.53,3.868-34.114,23.449-36.182,40.291-.827,6.732.508,15.946,11.557,21.617,11.4,5.852,61.951,7.843,80.011,1.648,3.772-1.293,5.044-2.6,5.446-3.459,4.016-8.622,5.9-25.111,6.29-28.922l-47.243-18.269-.122-.562c-.03-.134-1.673-7.248-7.38-10.844A13.985,13.985,0,0,0,850.739,1901.333Z" transform="translate(-807.439 -1899.194)" fill="#132342"/>
      </g>
      <g id="Group_3693" data-name="Group 3693" transform="translate(89.434 5.096)">
        <path id="Path_291" data-name="Path 291" d="M2274.966,961.231s10.173-20.281,27.653-25.95c11.137-3.612,15.8,33.891-.684,46.128" transform="translate(-2274.966 -935.038)" fill="#f5f5f5"/>
      </g>
      <g id="Group_3694" data-name="Group 3694" transform="translate(115.671 7.506)" opacity="0.3">
        <path id="Path_292" data-name="Path 292" d="M2708.205,1015.973c10.84-9.713,9.935-31.1,4.654-41.072a.592.592,0,0,0-1.084.467c3.693,10.883,3.3,28.613-6.295,37.206Z" transform="translate(-2705.481 -974.582)" fill="#000072"/>
      </g>
      <g id="Group_3696" data-name="Group 3696" transform="translate(89.647 5.096)" opacity="0.5">
        <g id="Group_3695" data-name="Group 3695">
          <path id="Path_293" data-name="Path 293" d="M2310.956,937.016a10.124,10.124,0,0,0-.774-.989,4.538,4.538,0,0,0-4.287-.742c-16.02,5.2-25.9,22.663-27.44,25.543a3.79,3.79,0,0,0,4.155-1.648c3.871-6.15,12.728-18.032,25.459-22.161A4.443,4.443,0,0,1,2310.956,937.016Z" transform="translate(-2278.455 -935.041)" fill="#fff"/>
        </g>
      </g>
      <g id="Group_3697" data-name="Group 3697" transform="translate(88.365 4.02)">
        <path id="Path_294" data-name="Path 294" d="M2285.464,965.9a1.069,1.069,0,0,1-.637-1.927c12.039-8.939,12.033-31.61,7.455-40.488-1.138-2.207-3.07-4.652-5.8-3.765-16.841,5.461-26.927,25.213-27.028,25.412a1.069,1.069,0,0,1-1.91-.959c.424-.845,10.577-20.746,28.278-26.487,3.248-1.054,6.218.658,8.364,4.818,2.681,5.2,3.742,13.762,2.7,21.814-1.23,9.531-5.06,17.12-10.783,21.37A1.065,1.065,0,0,1,2285.464,965.9Z" transform="translate(-2257.425 -917.381)" fill="#132342"/>
      </g>
      <g id="Group_3698" data-name="Group 3698" transform="translate(100.847 12.641)">
        <path id="Path_295" data-name="Path 295" d="M2473.924,1088.523c-1.34-2.9-5.447-6.231-8.9-8.656a6.581,6.581,0,0,1-1.307-9.53,50.243,50.243,0,0,1,12.9-11,3.437,3.437,0,0,1,5.164,2.391,37.111,37.111,0,0,1-.909,15.932,22.478,22.478,0,0,1-6.542,10.763" transform="translate(-2462.238 -1058.839)" fill="#ff6c6c"/>
      </g>
      <g id="Group_3699" data-name="Group 3699" transform="translate(100.848 12.641)">
        <path id="Path_296" data-name="Path 296" d="M2480.873,1077.66a22.493,22.493,0,0,1-6.54,10.763l-.4.1a17.19,17.19,0,0,0-4.229-5.024,55.3,55.3,0,0,0-4.675-3.632,6.586,6.586,0,0,1-1.31-9.532,46.321,46.321,0,0,1,7.639-7.394,55.8,55.8,0,0,1,5.262-3.607,3.434,3.434,0,0,1,5.16,2.389A37.086,37.086,0,0,1,2480.873,1077.66Z" transform="translate(-2462.247 -1058.842)" fill="#707070"/>
      </g>
      <g id="Group_3700" data-name="Group 3700" transform="translate(100.848 16.744)" opacity="0.3">
        <path id="Path_297" data-name="Path 297" d="M2470.925,1143.36a23.516,23.516,0,0,1-1.219,3.36,55.25,55.25,0,0,0-4.675-3.633,6.586,6.586,0,0,1-1.31-9.532,46.352,46.352,0,0,1,7.639-7.394,3.4,3.4,0,0,1,.477,1.27A37.109,37.109,0,0,1,2470.925,1143.36Z" transform="translate(-2462.247 -1126.161)" fill="#000072"/>
      </g>
      <g id="Group_3701" data-name="Group 3701" transform="translate(99.93 11.363)">
        <path id="Path_298" data-name="Path 298" d="M2459.276,1069.063a10.266,10.266,0,0,0-1.425-2.024,21.156,21.156,0,0,0-1.787-1.812,43.129,43.129,0,0,0-4.038-3.212q-.526-.377-1.06-.745l-1.094-.738a6.254,6.254,0,0,1-2.008-2.3,6.354,6.354,0,0,1,.14-5.972c.064-.113.129-.226.2-.334l.106-.161.1-.138.388-.551c.257-.368.535-.722.8-1.082.556-.706,1.118-1.408,1.714-2.079a43.214,43.214,0,0,1,3.785-3.828,46.04,46.04,0,0,1,4.225-3.336q1.105-.772,2.26-1.474c.385-.234.778-.458,1.176-.676s.788-.422,1.24-.635l.031-.014a.925.925,0,0,1,.591-.068l.1.021.058.016c.038.011.081.023.11.033.064.023.133.045.19.07a3.486,3.486,0,0,1,.335.158,3.063,3.063,0,0,1,.3.178,2.886,2.886,0,0,1,.279.195,5.675,5.675,0,0,1,.5.427c.144.154.3.3.427.468a8.58,8.58,0,0,1,1.223,2.059,13.066,13.066,0,0,1,.677,2.169,9.756,9.756,0,0,1,.209,1.125c.05.375.082.744.105,1.112a33.232,33.232,0,0,1-.732,8.6,33.742,33.742,0,0,1-1.137,4.145,27.487,27.487,0,0,1-1.7,3.957,20.212,20.212,0,0,1-2.388,3.593,14.5,14.5,0,0,1-3.212,2.872.314.314,0,0,1-.366-.508l0,0a17.2,17.2,0,0,0,4.842-6.506,32.209,32.209,0,0,0,2.318-7.862,36.884,36.884,0,0,0,.461-4.082,28.069,28.069,0,0,0-.023-4.06,10.348,10.348,0,0,0-.319-1.915l-.127-.474c-.044-.157-.1-.307-.151-.461-.094-.311-.224-.6-.338-.893a6.63,6.63,0,0,0-.935-1.534c-.089-.114-.192-.2-.284-.3a3.9,3.9,0,0,0-.3-.25,1.18,1.18,0,0,0-.153-.1,1.16,1.16,0,0,0-.152-.086,1.207,1.207,0,0,0-.14-.066c-.023-.01-.038-.012-.058-.02a.085.085,0,0,0-.016,0h0l.034.007.621-.081c-.338.165-.729.376-1.09.581s-.733.428-1.1.647q-1.091.665-2.144,1.4a43.868,43.868,0,0,0-4.023,3.185,44.5,44.5,0,0,0-3.642,3.615c-.575.633-1.117,1.295-1.653,1.961-.26.339-.524.676-.778,1.019l-.382.516-.1.129-.077.112c-.052.072-.1.15-.143.225a4.445,4.445,0,0,0,1.17,5.8l1.062.771q.535.4,1.065.8a41.839,41.839,0,0,1,4.031,3.529,15.255,15.255,0,0,1,3.222,4.418.567.567,0,0,1-1.023.486Z" transform="translate(-2447.187 -1037.862)" fill="#132342"/>
      </g>
      <g id="Group_3702" data-name="Group 3702" transform="translate(37.125 24.387)">
        <path id="Path_299" data-name="Path 299" d="M1508.224,1314.75a25.149,25.149,0,0,1-1.453,2.185,13.969,13.969,0,0,1-1.754,1.942s0,0-.008.006c-3.664,3.389-9.4,5.437-15.35,6.667a.029.029,0,0,0-.026.006,85.3,85.3,0,0,1-10.646,1.432c-.006.006-.006.006-.008.006a112.043,112.043,0,0,1-13.308.235l-11.832-1.113-8.372-.787-4.687-.441c-.553-.289-1.087-.583-1.608-.878a49.018,49.018,0,0,1-6.2-4.122l-3.469,1.7a3.425,3.425,0,0,1-4.162-3.423l.077-3.261v-.005l.072-3.063.02-.858-.5.069-4.491.632a3.427,3.427,0,0,1-3.724-4.476l6.91-20.442,0-.02a48.076,48.076,0,0,1,3.818-10.642h0a45.545,45.545,0,0,1,24.16-22c18.725-6.8,35.8,1.656,42.522,8.091,14.343,13.737,10.108,35.941,10.108,35.941a12.618,12.618,0,0,1,4.656,4.4C1510.649,1305.286,1511.4,1309.336,1508.224,1314.75Z" transform="translate(-1416.62 -1251.588)" fill="#f5f5f5"/>
      </g>
      <g id="Group_3704" data-name="Group 3704" transform="translate(49.476 24.387)" opacity="0.5">
        <g id="Group_3703" data-name="Group 3703">
          <path id="Path_300" data-name="Path 300" d="M1685.342,1265.624a33.628,33.628,0,0,1,9.036,15.587,34.892,34.892,0,0,0-9.838-19.018c-6.721-6.435-23.8-14.89-42.522-8.091a45.475,45.475,0,0,0-22.721,19.354c.109,1.319,2.4.28,6.2-3.937a44.557,44.557,0,0,1,17.322-11.984C1661.548,1250.73,1678.62,1259.19,1685.342,1265.624Z" transform="translate(-1619.298 -1251.588)" fill="#fff"/>
        </g>
      </g>
      <g id="Group_3705" data-name="Group 3705" transform="translate(60.319 32.348)">
        <path id="Path_301" data-name="Path 301" d="M1865.6,1437.443a26.069,26.069,0,0,1-3.177,4.1s0,0,0,0,0,0,0,.006a15.792,15.792,0,0,1-5.168,3.4l-.026.011c-1.556.695-3.229,1.293-4.908,1.9l-.04.014a57.542,57.542,0,0,1-9.184,2.437,86.547,86.547,0,0,1-18.588,1.287c-2.028-.074-3.95-.223-5.718-.429a47.193,47.193,0,0,1-7.542-1.4h0c-.017-.006-.034-.009-.048-.014-7.071-2.159-11.636-6.562-13.28-10.6a9.8,9.8,0,0,1-.449-1.356,6.475,6.475,0,0,1,.051-3.7c3.307-9.461,11.094-4.7,23.733-4.093s16.561-6.2,16.183-21.071-6.358-21.588-7.408-23.911,3.487-3.744,9.948,4.176,5.231,22.312,5.231,22.312c.014,7.313,1.378,13.82,8.014,12.25s10.4-.029,10.4-.029a14.758,14.758,0,0,1,3.341,3.97C1868.309,1429.134,1868.372,1432.929,1865.6,1437.443Z" transform="translate(-1797.218 -1382.218)" fill="#fff"/>
      </g>
      <g id="Group_3706" data-name="Group 3706" transform="translate(37.125 48.898)" opacity="0.3">
        <path id="Path_302" data-name="Path 302" d="M1508.224,1692.433a25.183,25.183,0,0,1-1.453,2.185,13.964,13.964,0,0,1-1.754,1.943,0,0,0,0,0,0,0s0,0-.006,0a21.092,21.092,0,0,1-5.165,3.406l-.026.012a36.108,36.108,0,0,1-4.907,1.9c-1.7.532-3.464.975-5.252,1.344a.029.029,0,0,0-.026.006,37.653,37.653,0,0,0-3.947,1.1,86.573,86.573,0,0,1-18.588,1.287,15.792,15.792,0,0,1-1.427-.715l-11.832-1.112h0l-8.369-.787-4.687-.441q-.829-.434-1.608-.878a49.071,49.071,0,0,1-6.2-4.122l-3.469,1.7a3.425,3.425,0,0,1-4.162-3.423l.077-3.261v-.005l.072-3.063.02-.858-.5.069-4.491.632a3.427,3.427,0,0,1-3.724-4.476l6.91-20.442,0-.02a48.075,48.075,0,0,1,3.818-10.643h0s-9.353,29.929-4.439,30.323,6.459-.481,6.459-.481-2.423,9.759.472,10.028,7.2-3.3,7.2-3.3a13.54,13.54,0,0,0,3.281,2.832c3.753,2.531,11.26,6.081,25.1,7.7,15.931,1.865,34.2-1.359,42.588-8.432A.191.191,0,0,0,1508.224,1692.433Z" transform="translate(-1416.62 -1653.781)" fill="#000072"/>
      </g>
      <g id="Group_3707" data-name="Group 3707" transform="translate(102.732 72.574)">
        <path id="Path_303" data-name="Path 303" d="M2493.175,2045.773c.056,1.176,1.981,2.733,3.9,4a6.439,6.439,0,0,0,7.546-.363c1.792-1.447,3.558-3.182,3.5-4.357-.114-2.367-3.5-2.945-7.624-2.747S2493.062,2043.407,2493.175,2045.773Z" transform="translate(-2493.172 -2042.273)" fill="#132342"/>
      </g>
      <g id="Group_3709" data-name="Group 3709" transform="translate(108.507 73.956)" opacity="0.54">
        <g id="Group_3708" data-name="Group 3708">
          <path id="Path_304" data-name="Path 304" d="M2587.931,2065.843c.012.273.771.621,1.532.9a4.178,4.178,0,0,0,3.03-.145c.73-.351,1.453-.769,1.44-1.042-.027-.549-1.378-.657-3.036-.577S2587.9,2065.294,2587.931,2065.843Z" transform="translate(-2587.931 -2064.954)" fill="#fff"/>
        </g>
      </g>
      <g id="Group_3710" data-name="Group 3710" transform="translate(81.665 46.641)">
        <ellipse id="Ellipse_3" data-name="Ellipse 3" cx="4.46" cy="2.379" rx="4.46" ry="2.379" transform="translate(0 3.183) rotate(-20.905)" fill="#fff"/>
      </g>
      <g id="Group_3711" data-name="Group 3711" transform="translate(110.353 46.083)">
        <ellipse id="Ellipse_4" data-name="Ellipse 4" cx="2.379" cy="4.46" rx="2.379" ry="4.46" transform="matrix(0.307, -0.952, 0.952, 0.307, 0, 4.527)" fill="#fff"/>
      </g>
      <g id="Group_3712" data-name="Group 3712" transform="translate(80.614 60.687)">
        <path id="Path_305" data-name="Path 305" d="M2130.359,1855.646a8.911,8.911,0,0,1-.043-2.649,7.711,7.711,0,0,1,.819-2.619,5.557,5.557,0,0,1,.83-1.189,5.667,5.667,0,0,1,1.126-.969,6.381,6.381,0,0,1,2.745-.958,5.073,5.073,0,0,1,2.987.542,5.67,5.67,0,0,1,2.108,2.037,8.166,8.166,0,0,1,1.015,2.528,7.94,7.94,0,0,1,.159,2.657.538.538,0,0,1-1.065.021l0-.025a9.551,9.551,0,0,0-1.675-4.11,4.136,4.136,0,0,0-1.484-1.258,3.271,3.271,0,0,0-1.8-.269,5.306,5.306,0,0,0-.991.21,4.033,4.033,0,0,0-.895.39,4.308,4.308,0,0,0-1.42,1.362,9.785,9.785,0,0,0-1.348,4.224l-.005.043a.536.536,0,0,1-1.06.032Z" transform="translate(-2130.238 -1847.225)" fill="#132342"/>
      </g>
      <g id="Group_3713" data-name="Group 3713" transform="translate(111.364 60.051)">
        <path id="Path_306" data-name="Path 306" d="M2644.134,1844.213a8.52,8.52,0,0,0-1.172-3.615,3.665,3.665,0,0,0-1.192-1.142,4.146,4.146,0,0,0-1.582-.5,2.748,2.748,0,0,0-1.481.217,3.431,3.431,0,0,0-1.252,1.028,8.618,8.618,0,0,0-1.526,3.478l-.006.032a.539.539,0,0,1-1.062-.036,6.871,6.871,0,0,1,.123-2.339,7.115,7.115,0,0,1,.9-2.232,5.038,5.038,0,0,1,1.89-1.8,4.567,4.567,0,0,1,2.678-.463,5.579,5.579,0,0,1,2.429.88,5.134,5.134,0,0,1,1.715,1.939,6.717,6.717,0,0,1,.687,2.319,8.154,8.154,0,0,1,.047,1.162,7.02,7.02,0,0,1-.127,1.163.538.538,0,0,1-1.061-.039Z" transform="translate(-2634.81 -1836.795)" fill="#132342"/>
      </g>
      <g id="Group_3714" data-name="Group 3714" transform="translate(36.057 23.329)">
        <path id="Path_307" data-name="Path 307" d="M1453.405,1312.417c-22.612,0-33.92-5.725-36.128-6.98l-4,.882a4.493,4.493,0,0,1-5.459-4.49l.137-5.929-3.743.523a4.493,4.493,0,0,1-4.885-5.866l7.265-21.873,3.1-8.5a46.227,46.227,0,0,1,25.2-23.4,43.135,43.135,0,0,1,26.4-.939c6.643,1.845,13.077,5.309,17.21,9.266,6.054,5.8,9.757,14.146,10.712,24.148a54.611,54.611,0,0,1-.259,12.7,11.962,11.962,0,0,1,5.785,7.217c.88,3.635-.318,7.7-3.561,12.089-5.472,7.4-18.943,9.817-29.281,10.538a1.069,1.069,0,1,1-.149-2.132c9.889-.69,22.724-2.929,27.711-9.676,2.849-3.854,3.927-7.325,3.2-10.316-.9-3.724-4.329-5.673-5.358-6.182l-.727-.359.15-.8c.042-.224,4.045-22.52-9.7-35.683-6.97-6.673-23.751-14.273-41.415-7.856l-.035.012a44.882,44.882,0,0,0-23.923,22.248l-3.033,8.33-7.255,21.844a2.355,2.355,0,0,0,2.561,3.075l6.234-.871-.2,8.443a2.356,2.356,0,0,0,2.862,2.354l4.843-1.068.372.236c.108.068,11.215,6.88,35.375,6.88a1.069,1.069,0,0,1,0,2.137Z" transform="translate(-1399.092 -1234.216)" fill="#132342"/>
      </g>
      <g id="Group_3715" data-name="Group 3715" transform="translate(117.537 38.469)">
        <path id="Path_308" data-name="Path 308" d="M2742.852,1498.339a1.068,1.068,0,0,1-1.044-.848,35.479,35.479,0,0,0-5.516-13.157,1.068,1.068,0,0,1,1.75-1.227,37.574,37.574,0,0,1,5.858,13.943,1.069,1.069,0,0,1-.826,1.266A1.08,1.08,0,0,1,2742.852,1498.339Z" transform="translate(-2736.098 -1482.651)" fill="#132342"/>
      </g>
      <g id="Group_3716" data-name="Group 3716" transform="translate(120.216 43.047)">
        <path id="Path_309" data-name="Path 309" d="M2785.076,1575.857a1.068,1.068,0,0,1-1.066-1,41.831,41.831,0,0,0-3.84-15.548,1.069,1.069,0,0,1,1.925-.928,43.926,43.926,0,0,1,4.048,16.34,1.068,1.068,0,0,1-1,1.134C2785.122,1575.856,2785.1,1575.857,2785.076,1575.857Z" transform="translate(-2780.064 -1557.775)" fill="#132342"/>
      </g>
      <g id="Group_3717" data-name="Group 3717" transform="translate(101.568 81.598)">
        <path id="Path_310" data-name="Path 310" d="M2490.244,2190.355s1.481,3.219-.586,4.614c-2.668,1.8-5.511-.293-6.841-1.9,0,0-2.708,4.818-6.8,3.167-2.737-1.105-1.8-4.914-1.8-4.914" transform="translate(-2474.063 -2190.355)" fill="#fff"/>
      </g>
      <g id="Group_3718" data-name="Group 3718" transform="translate(101.568 81.598)">
        <path id="Path_311" data-name="Path 311" d="M2490.244,2190.355s1.481,3.219-.586,4.614c-2.668,1.8-5.511-.293-6.841-1.9,0,0-2.708,4.818-6.8,3.167-2.737-1.105-1.8-4.914-1.8-4.914" transform="translate(-2474.063 -2190.355)" fill="#fff"/>
      </g>
      <g id="Group_3719" data-name="Group 3719" transform="translate(101.569 82.009)" opacity="0.3">
        <path id="Path_312" data-name="Path 312" d="M2476.042,2202.569c4.09,1.655,6.8-3.166,6.8-3.166,1.33,1.609,4.175,3.7,6.839,1.9a3.12,3.12,0,0,0,.965-3.445,2.383,2.383,0,0,1-.668.645c-2.468,1.625-5.079.094-6.572-1.4l-.824.049c-.883,1.213-3.32,3.934-6.63,2.636a2.955,2.955,0,0,1-1.763-1.851C2474.031,2198.84,2473.759,2201.648,2476.042,2202.569Z" transform="translate(-2474.086 -2197.103)" fill="#000072"/>
      </g>
      <g id="Group_3720" data-name="Group 3720" transform="translate(100.924 81.511)">
        <path id="Path_313" data-name="Path 313" d="M2480.455,2188.961a2.906,2.906,0,0,1,1.1,1.474,3.611,3.611,0,0,1,.107,1.945,2.665,2.665,0,0,1-.147.521,2.54,2.54,0,0,1-.236.51,2.435,2.435,0,0,1-.332.465c-.063.072-.121.151-.188.215l-.214.184-.219.179c-.072.053-.14.09-.211.136-.139.087-.283.17-.427.252a5.357,5.357,0,0,1-.953.349,4.542,4.542,0,0,1-2.01.064,6.33,6.33,0,0,1-1.8-.643,9.686,9.686,0,0,1-2.739-2.3l1.5-.134a9.323,9.323,0,0,1-.549.819c-.189.256-.39.5-.6.738a8.849,8.849,0,0,1-1.44,1.3,6.262,6.262,0,0,1-1.816.9,5.564,5.564,0,0,1-2.092.211c-.177-.008-.349-.046-.524-.07s-.342-.077-.51-.121-.323-.1-.5-.175-.342-.17-.51-.258a3.425,3.425,0,0,1-1.42-1.757,4.226,4.226,0,0,1-.191-2.027,4.625,4.625,0,0,1,.615-1.788.147.147,0,0,1,.27.053l0,.014a14.682,14.682,0,0,0,.326,1.667,4.83,4.83,0,0,0,.569,1.343,2.554,2.554,0,0,0,.844.808,2.974,2.974,0,0,1,.266.133c.091.049.212.085.318.131l.329.105c.111.022.221.06.333.073a3.554,3.554,0,0,0,2.63-.735,6.956,6.956,0,0,0,1.135-1.027c.175-.193.341-.4.5-.607a6.942,6.942,0,0,0,.418-.625l.651-1.152.854,1.017a6.931,6.931,0,0,0,2.206,1.749,3.488,3.488,0,0,0,2.415.313,3.341,3.341,0,0,0,.557-.2c.088-.053.175-.106.266-.154.044-.025.1-.047.133-.072l.094-.074.1-.069a1.016,1.016,0,0,0,.078-.084.744.744,0,0,0,.145-.178.888.888,0,0,0,.125-.207.961.961,0,0,0,.1-.242,6.465,6.465,0,0,0,.167-1.249,12.281,12.281,0,0,1,.212-1.606l0-.016a.163.163,0,0,1,.194-.125A.156.156,0,0,1,2480.455,2188.961Z" transform="translate(-2463.503 -2188.932)" fill="#132342"/>
      </g>
      <g id="Group_3721" data-name="Group 3721" transform="translate(109.088 79.096)">
        <path id="Path_314" data-name="Path 314" d="M2598.916,2149.628c.093.458.168.906.234,1.364s.117.916.154,1.382a11.951,11.951,0,0,1,.031,1.431,4.5,4.5,0,0,1-.3,1.584l-.015.041a.807.807,0,1,1-1.493-.615.778.778,0,0,1,.076-.142,3.107,3.107,0,0,0,.342-1.026,10.363,10.363,0,0,0,.158-1.267,22.327,22.327,0,0,0,.019-2.642v-.01a.4.4,0,0,1,.8-.1Z" transform="translate(-2597.46 -2149.304)" fill="#132342"/>
      </g>
      <g id="Group_3722" data-name="Group 3722" transform="translate(43.952 1.064)">
        <path id="Path_315" data-name="Path 315" d="M1565.457,899.349s-6.882-21.62-23.263-29.948c-10.437-5.306-20.894,31.009-6.525,45.669" transform="translate(-1528.639 -868.876)" fill="#f5f5f5"/>
      </g>
      <g id="Group_3724" data-name="Group 3724" transform="translate(52.456 1.066)" opacity="0.5">
        <g id="Group_3723" data-name="Group 3723">
          <path id="Path_316" data-name="Path 316" d="M1673.244,869.434a4.706,4.706,0,0,0-5.049.49,4.549,4.549,0,0,1,2.188.521c11.93,6.065,18.825,19.184,21.688,25.863a3.793,3.793,0,0,0,4.148,2.238C1694.764,894.5,1687.707,876.786,1673.244,869.434Z" transform="translate(-1668.195 -868.911)" fill="#fff"/>
        </g>
      </g>
      <g id="Group_3725" data-name="Group 3725" transform="translate(42.886)">
        <path id="Path_317" data-name="Path 317" d="M1548.7,883.059a38.237,38.237,0,0,1-2.832-5.058c-.862-1.707-1.682-3.432-2.575-5.123a51.191,51.191,0,0,0-2.973-4.9,54.008,54.008,0,0,0-3.454-4.549,45.617,45.617,0,0,0-3.936-4.1,35.162,35.162,0,0,0-4.446-3.5c-.383-.275-.795-.5-1.192-.754-.2-.121-.4-.249-.6-.365l-.619-.336-.619-.336-.154-.084-.134-.059-.264-.119a3.872,3.872,0,0,0-1.082-.229,3.719,3.719,0,0,0-1.1.137,4.806,4.806,0,0,0-1.077.482,8.308,8.308,0,0,0-1.939,1.683,19.418,19.418,0,0,0-2.889,4.677,35.649,35.649,0,0,0-1.906,5.317,46.215,46.215,0,0,0-1.61,11.244,38.038,38.038,0,0,0,1.359,11.206c.266.9.567,1.785.914,2.652a21.413,21.413,0,0,0,1.248,2.49l1.39,2.4a18.381,18.381,0,0,1,1.293,2.586l0,.01a.383.383,0,0,1-.513.489,7.466,7.466,0,0,1-2.463-1.862,13.282,13.282,0,0,1-1.715-2.529,35.585,35.585,0,0,1-2.211-5.636,40.148,40.148,0,0,1-1.443-11.843,48.34,48.34,0,0,1,1.686-11.769,37.688,37.688,0,0,1,2.023-5.64,21.489,21.489,0,0,1,3.225-5.2,10.4,10.4,0,0,1,2.451-2.109,6.911,6.911,0,0,1,1.576-.7,5.842,5.842,0,0,1,1.783-.22,5.978,5.978,0,0,1,1.757.369l.4.177.2.091.166.09.661.359.662.359c.217.124.429.26.643.389.423.267.863.511,1.269.8a37.254,37.254,0,0,1,4.705,3.7,47.637,47.637,0,0,1,4.124,4.3,56.073,56.073,0,0,1,3.59,4.727c1.112,1.634,2.138,3.322,3.135,5.024a42.379,42.379,0,0,1,2.667,5.281,17.306,17.306,0,0,1,1.489,5.759.368.368,0,0,1-.67.229Z" transform="translate(-1511.16 -851.414)" fill="#132342"/>
      </g>
      <g id="Group_3726" data-name="Group 3726" transform="translate(50.819 8.775)">
        <path id="Path_318" data-name="Path 318" d="M1646.739,1025.457c1.777-2.658,6.354-5.3,10.146-7.161a6.581,6.581,0,0,0,2.778-9.209,50.252,50.252,0,0,0-11.023-12.88,3.436,3.436,0,0,0-5.473,1.556,37.1,37.1,0,0,0-1.589,15.878,22.482,22.482,0,0,0,4.782,11.653" transform="translate(-1641.327 -995.4)" fill="#ff6c6c"/>
      </g>
      <g id="Group_3727" data-name="Group 3727" transform="translate(50.82 8.775)">
        <path id="Path_319" data-name="Path 319" d="M1641.6,1013.64a22.489,22.489,0,0,0,4.78,11.651l.377.165a17.2,17.2,0,0,1,4.96-4.3,55.34,55.34,0,0,1,5.186-2.858,6.586,6.586,0,0,0,2.781-9.211,46.284,46.284,0,0,0-6.391-8.5,55.907,55.907,0,0,0-4.635-4.384,3.434,3.434,0,0,0-5.471,1.554A37.093,37.093,0,0,0,1641.6,1013.64Z" transform="translate(-1641.344 -995.399)" fill="#707070"/>
      </g>
      <g id="Group_3728" data-name="Group 3728" transform="translate(60.258 13.966)" opacity="0.3">
        <path id="Path_320" data-name="Path 320" d="M1796.469,1097.633a23.588,23.588,0,0,0,.68,3.509,55.184,55.184,0,0,1,5.186-2.859,6.586,6.586,0,0,0,2.781-9.211,46.327,46.327,0,0,0-6.39-8.5,3.4,3.4,0,0,0-.67,1.18A37.108,37.108,0,0,0,1796.469,1097.633Z" transform="translate(-1796.217 -1080.576)" fill="#000072"/>
      </g>
      <g id="Group_3730" data-name="Group 3730" transform="translate(49.839 7.339)">
        <g id="Group_3729" data-name="Group 3729">
          <path id="Path_321" data-name="Path 321" d="M1631.634,1002.745a1.133,1.133,0,0,1,.1-.344,2.042,2.042,0,0,1,.189-.191l.242-.232q.484-.461.987-.9c.668-.59,1.36-1.151,2.068-1.69a42.732,42.732,0,0,1,4.441-2.964c.387-.221.775-.442,1.17-.65.2-.106.393-.211.594-.311l.3-.152.149-.076.123-.07a4.515,4.515,0,0,0,2.063-5.687c-.125-.313-.355-.713-.554-1.085l-.612-1.128-.665-1.1-.332-.549-.358-.533-.715-1.065-.762-1.033c-.248-.348-.515-.682-.785-1.014s-.526-.674-.81-.993a43.376,43.376,0,0,0-3.531-3.708c-.619-.586-1.264-1.142-1.916-1.684-.33-.264-.658-.535-.995-.785-.167-.128-.335-.254-.5-.373s-.346-.246-.489-.341l.7.205h0l.045,0h0s0,0-.008,0-.028,0-.049.007a1.148,1.148,0,0,0-.135.035,1.111,1.111,0,0,0-.151.054,1.063,1.063,0,0,0-.159.072,3.513,3.513,0,0,0-.324.184c-.105.082-.217.148-.32.242a6.4,6.4,0,0,0-1.155,1.326,11.672,11.672,0,0,0-.9,1.685c-.069.149-.135.3-.186.439s-.11.291-.159.445-.1.305-.144.463-.092.314-.13.476a32.806,32.806,0,0,0-.858,8.084,31.105,31.105,0,0,0,1.109,8.091,19.325,19.325,0,0,0,1.5,3.764l.24.445c.083.146.175.287.261.431.17.291.362.565.556.839s.409.53.614.8l.124.152a.352.352,0,0,1,.054.106C1631.587,1002.505,1631.6,1002.613,1631.634,1002.745Zm.01,1.189a5.3,5.3,0,0,1-.654-.443c-.108-.087-.211-.18-.309-.275-.046-.045-.1-.1-.134-.138l-.09-.1c-.235-.28-.491-.546-.7-.844s-.444-.582-.64-.89c-.1-.152-.205-.3-.3-.457l-.278-.47a20.757,20.757,0,0,1-1.759-3.974,32.744,32.744,0,0,1-1.488-8.48,34.638,34.638,0,0,1,.6-8.631c.036-.181.08-.362.127-.544s.091-.363.147-.547a9.643,9.643,0,0,1,.378-1.089l.213-.523c.073-.174.162-.345.243-.517.155-.347.36-.681.548-1.02a8.708,8.708,0,0,1,1.537-1.887c.152-.146.334-.275.5-.41a5.883,5.883,0,0,1,.575-.359,3.11,3.11,0,0,1,.314-.157,3.322,3.322,0,0,1,.339-.136,3.488,3.488,0,0,1,.369-.111c.064-.017.14-.029.21-.043.032-.007.079-.012.121-.018l.065-.007.111-.007h0l.393-.009.3.215c.217.153.391.283.576.426s.363.282.539.425c.357.283.7.579,1.041.873.677.6,1.34,1.206,1.975,1.842a45.6,45.6,0,0,1,3.59,4c.287.344.545.711.819,1.066s.541.714.79,1.086l.764,1.1.715,1.137.357.568.331.585.661,1.168.606,1.2a13.839,13.839,0,0,1,.6,1.273,6.245,6.245,0,0,1-.755,5.81,6.133,6.133,0,0,1-2.277,1.941l-.166.086-.145.068-.29.137c-.194.09-.386.185-.578.281-.385.188-.764.39-1.143.592a41.279,41.279,0,0,0-4.375,2.736c-.7.5-1.385,1.023-2.046,1.572q-.5.409-.977.84l-.525.477A4.536,4.536,0,0,1,1631.644,1003.934Z" transform="translate(-1625.247 -971.847)" fill="#132342"/>
        </g>
      </g>
      <g id="Group_3732" data-name="Group 3732" transform="translate(70.681 49.428)">
        <path id="Path_323" data-name="Path 323" d="M1982.706,1693.337q-.705,0-1.418-.065a15.377,15.377,0,1,1,1.418.065Zm-.037-28.725a13.32,13.32,0,1,0,1.209.055C1983.472,1664.63,1983.068,1664.612,1982.669,1664.612Z" transform="translate(-1967.248 -1662.474)" fill="#132342"/>
      </g>
      <g id="Group_3734" data-name="Group 3734" transform="translate(107.87 49.708)">
        <path id="Path_325" data-name="Path 325" d="M2589.859,1691.774q-.567,0-1.136-.051a12.324,12.324,0,1,1,1.136.051Zm-.03-22.572a10.217,10.217,0,1,0,10.183,11.138l1.063.1-1.063-.1a10.229,10.229,0,0,0-9.254-11.1C2590.447,1669.216,2590.136,1669.2,2589.829,1669.2Z" transform="translate(-2577.482 -1667.064)" fill="#132342"/>
      </g>
      <g id="Group_3735" data-name="Group 3735" transform="translate(99.282 60.699)">
        <path id="Path_326" data-name="Path 326" d="M2437.625,1850.752a1.068,1.068,0,0,1-.5-2.015c.223-.117,5.529-2.83,9.682-.078a1.069,1.069,0,0,1-1.181,1.782c-3.094-2.052-7.469.168-7.513.191A1.068,1.068,0,0,1,2437.625,1850.752Z" transform="translate(-2436.554 -1847.43)" fill="#132342"/>
      </g>
      <g id="Group_3736" data-name="Group 3736" transform="translate(92.076 117.228)">
        <path id="Path_327" data-name="Path 327" d="M2338.734,2777.451s-2.653-3.146-9.507-2.305c-3.566.438-12.045,4.038-10.783,11.138,1.065,5.991,8.172,4.707,17.309,3.817,0,0,6.141-.462,8.749-3.032s2.018-7.071,1.092-9.448" transform="translate(-2318.317 -2775.003)" fill="#fff"/>
      </g>
      <g id="Group_3737" data-name="Group 3737" transform="translate(91.006 116.159)">
        <path id="Path_328" data-name="Path 328" d="M2309.7,2775.454c-4.617,0-8.032-1.1-8.807-5.452a8.435,8.435,0,0,1,1.6-6.715c2.623-3.549,7.593-5.361,10.109-5.67,7.344-.9,10.331,2.53,10.454,2.677a1.069,1.069,0,0,1-1.627,1.386c-.115-.128-2.479-2.688-8.567-1.941-2.324.285-6.545,1.969-8.65,4.82a6.359,6.359,0,0,0-1.211,5.07c.766,4.314,5.3,4.053,13.911,3.167q1.1-.113,2.243-.227c1.624-.124,6.2-.853,8.1-2.731,2.162-2.13,1.69-6.13.847-8.3a1.069,1.069,0,1,1,1.991-.775c.9,2.319,1.785,7.518-1.338,10.6-2.855,2.813-9.152,3.317-9.419,3.338-.735.072-1.479.148-2.207.223C2314.482,2775.194,2311.951,2775.454,2309.7,2775.454Z" transform="translate(-2300.752 -2757.466)" fill="#000072"/>
      </g>
      <g id="Group_3738" data-name="Group 3738" transform="translate(119.44 100.057)">
        <path id="Path_329" data-name="Path 329" d="M2767.33,2504.653s.688-9.01,8.044-9.4c10.365-.548,14.363-2,14.363-2v3.322l-5.262,5.73Z" transform="translate(-2767.33 -2493.256)" fill="#fff"/>
      </g>
      <g id="Group_3740" data-name="Group 3740" transform="translate(117.612 98.229)">
        <g id="Group_3739" data-name="Group 3739">
          <path id="Path_330" data-name="Path 330" d="M2761.566,2465.083v3.322l-5.262,5.729-17.144,2.346s.688-9.01,8.044-9.4c10.366-.548,14.363-2,14.363-2m0-1.829a1.847,1.847,0,0,0-.617.108c-.076.026-4.035,1.375-13.844,1.893-3.719.2-6.6,2.233-8.335,5.887a16.334,16.334,0,0,0-1.434,5.2,1.827,1.827,0,0,0,1.822,1.968,1.8,1.8,0,0,0,.248-.017l17.145-2.346a1.835,1.835,0,0,0,1.1-.574l5.261-5.73a1.825,1.825,0,0,0,.482-1.236v-3.322a1.831,1.831,0,0,0-1.828-1.829Z" transform="translate(-2737.332 -2463.255)" fill="#132342"/>
        </g>
      </g>
      <g id="Group_3741" data-name="Group 3741" transform="translate(72.535 102.389)">
        <path id="Path_331" data-name="Path 331" d="M2046.546,2538.091s-1.473-4.162-7.284-5.867c-5.618-1.649-16.067.824-28.622-.716l-12.968,16.867,27.791,7.876Z" transform="translate(-1997.672 -2531.508)" fill="#fff"/>
      </g>
      <g id="Group_3742" data-name="Group 3742" transform="translate(68.927 100.123)">
        <path id="Path_332" data-name="Path 332" d="M1955.033,2496.605a76.633,76.633,0,0,0,9.342.529c5.243,0,9.877-.409,13.626-.409a20.711,20.711,0,0,1,5.654.594c5.811,1.705,7.284,5.867,7.284,5.867l-21.083,18.16-27.791-7.876,12.968-16.866m-.949-2.266-.742.965-12.967,16.867-1.918,2.494,3.028.858,27.79,7.875,1.1.313.87-.748,21.084-18.161,1.106-.952-.487-1.376c-.075-.211-1.915-5.211-8.695-7.2a22.172,22.172,0,0,0-6.255-.682c-1.767,0-3.716.089-5.781.181-2.369.107-5.053.229-7.845.229a74.182,74.182,0,0,1-9.083-.515l-1.208-.148Z" transform="translate(-1938.457 -2494.34)" fill="#132342"/>
      </g>
      <g id="Group_3743" data-name="Group 3743" transform="translate(61.18 104.991)">
        <path id="Path_333" data-name="Path 333" d="M1872.219,2577.345l-23.522,30.807H1811.34l18.448-24.2,7.425-9.739Z" transform="translate(-1811.34 -2574.214)" fill="#2ea5ff"/>
      </g>
      <g id="Group_3746" data-name="Group 3746" transform="translate(61.18 114.73)" opacity="0.3">
        <path id="Path_335" data-name="Path 335" d="M1835.194,2758.217H1811.34l18.448-24.2c3,1.376,7.3,4.184,7.173,8.932-.2,7.269-8.174,10.28-8.477,12.408C1828.361,2756.221,1831.461,2757.273,1835.194,2758.217Z" transform="translate(-1811.34 -2734.017)" fill="#000072"/>
      </g>
      <g id="Group_3747" data-name="Group 3747" transform="translate(98.536 101.756)">
        <path id="Path_336" data-name="Path 336" d="M2470.069,2521.134l-14.207,16.885-12.253,14.567-.732.872-18.557,4.848,23.522-30.807Z" transform="translate(-2424.321 -2521.134)" fill="#2ea5ff"/>
      </g>
      <g id="Group_3750" data-name="Group 3750" transform="translate(60.112 103.921)">
        <path id="Path_338" data-name="Path 338" d="M1832.248,2592.736h-37.354a1.068,1.068,0,0,1-.85-1.716l25.871-33.942a1.068,1.068,0,0,1,.945-.417l35.005,3.132a1.068,1.068,0,0,1,.754,1.712l-23.522,30.809A1.07,1.07,0,0,1,1832.248,2592.736Zm-35.2-2.138h34.667l22.025-28.848-32.487-2.906Z" transform="translate(-1793.825 -2556.657)" fill="#132342"/>
      </g>
      <g id="Group_3751" data-name="Group 3751" transform="translate(97.467 100.689)">
        <path id="Path_339" data-name="Path 339" d="M2407.842,2542.93a1.069,1.069,0,0,1-.849-1.718l23.522-30.808a1.073,1.073,0,0,1,.556-.379l22.226-6.364a1.069,1.069,0,0,1,1.112,1.716l-27.189,32.324a1.078,1.078,0,0,1-.547.346l-18.558,4.848A1.061,1.061,0,0,1,2407.842,2542.93ZM2432,2511.982l-21.424,28.061,15.226-3.979,24.718-29.385Z" transform="translate(-2406.773 -2503.619)" fill="#132342"/>
      </g>
      <g id="Group_3752" data-name="Group 3752" transform="translate(37.404 107.119)">
        <path id="Path_340" data-name="Path 340" d="M1468.722,2623.74c-.486,5.9-5.769,12.362-13.017,12.528-4.5.106-6.35.879-8.878,2.263-1.464.8-5.526,1.319-10,1.29-5.606-.034-11.867-.924-14.521-3.2-4.905-4.2,7.8-23.147,14.172-27.492l5.5,16.629c.154-.245.312-.486.475-.724.3-.449.618-.881.944-1.3a21.073,21.073,0,0,1,15.891-8.317C1465.127,2615.35,1469.163,2618.419,1468.722,2623.74Z" transform="translate(-1421.201 -2609.131)" fill="#f5f5f5"/>
      </g>
      <g id="Group_3753" data-name="Group 3753" transform="translate(53.026 113.41)">
        <path id="Path_341" data-name="Path 341" d="M1709.436,2720.678c-.486,5.9-5.769,12.362-13.016,12.529-4.5.105-6.35.877-8.878,2.262-1.464.8-5.526,1.318-10,1.29a19.305,19.305,0,0,0,2.451-5.632,42.5,42.5,0,0,1,3.175-9.153c.606-1.108.944-1.3.944-1.3a21.077,21.077,0,0,1,15.891-8.317C1705.841,2712.288,1709.876,2715.356,1709.436,2720.678Z" transform="translate(-1677.537 -2712.36)" fill="#fff"/>
      </g>
      <g id="Group_3754" data-name="Group 3754" transform="translate(36.085 106.954)">
        <path id="Path_342" data-name="Path 342" d="M1416.252,2606.737c-.883.923-1.673,1.9-2.452,2.88s-1.53,1.986-2.271,3c-1.477,2.021-2.954,4.048-4.266,6.178a51.494,51.494,0,0,0-3.5,6.568,24,24,0,0,0-1.207,3.4,8.032,8.032,0,0,0-.291,3.206,2.98,2.98,0,0,0,.182.6,1.768,1.768,0,0,0,.291.429c.031.028.06.057.088.088l.141.115c.1.077.2.153.307.225a6.853,6.853,0,0,0,.693.412,15.147,15.147,0,0,0,3.3,1.184,39.209,39.209,0,0,0,7.327.982,48.89,48.89,0,0,0,7.45-.2c.611-.068,1.217-.153,1.808-.26a11.152,11.152,0,0,0,1.663-.418c.121-.044.234-.09.331-.136.065-.03.241-.126.379-.2.289-.154.582-.309.885-.455a17.583,17.583,0,0,1,1.888-.806,16.637,16.637,0,0,1,4.014-.847c.665-.059,1.328-.105,1.984-.122.346-.009.62-.026.909-.039.286-.029.575-.048.858-.1a11.826,11.826,0,0,0,6.165-3,13.669,13.669,0,0,0,3.79-5.831,11.137,11.137,0,0,0,.4-1.685,9.006,9.006,0,0,0,.117-1.684,5.835,5.835,0,0,0-.887-3.009,5.963,5.963,0,0,0-2.361-2.044,9.964,9.964,0,0,0-3.225-.925,17.663,17.663,0,0,0-7.038.669,22.509,22.509,0,0,0-3.385,1.322,23.309,23.309,0,0,0-3.155,1.883,25.738,25.738,0,0,0-5.376,5.2.182.182,0,0,1-.307-.192,21.019,21.019,0,0,1,11.521-10.318,18.909,18.909,0,0,1,3.925-1,16.21,16.21,0,0,1,4.114-.083,11.733,11.733,0,0,1,4.081,1.2,8.346,8.346,0,0,1,3.28,2.986,8.455,8.455,0,0,1,1.2,4.253,13.093,13.093,0,0,1-.663,4.154,16.013,16.013,0,0,1-4.452,6.855,14.182,14.182,0,0,1-7.4,3.586c-.344.06-.693.085-1.041.119s-.71.037-1,.045c-.619.015-1.228.059-1.833.111a14.306,14.306,0,0,0-3.453.723,13.891,13.891,0,0,0-1.624.7c-.27.135-.541.279-.813.426-.143.077-.246.137-.466.248-.191.093-.373.167-.551.233a13.516,13.516,0,0,1-2.038.534c-.663.125-1.32.221-1.975.3a52.432,52.432,0,0,1-7.827.267,41.629,41.629,0,0,1-7.826-.955,17.418,17.418,0,0,1-3.9-1.359,9.358,9.358,0,0,1-.953-.558c-.157-.1-.312-.218-.466-.337l-.23-.187-.257-.243a4.385,4.385,0,0,1-.79-1.138,5.517,5.517,0,0,1-.394-1.223,7.971,7.971,0,0,1-.067-2.287,14.323,14.323,0,0,1,.391-2.073,24.759,24.759,0,0,1,1.36-3.793,54.174,54.174,0,0,1,8.539-13.042,28.558,28.558,0,0,1,2.833-2.7,18.123,18.123,0,0,1,1.582-1.174,10.925,10.925,0,0,1,1.732-.955.184.184,0,0,1,.206.3Z" transform="translate(-1399.559 -2606.423)" fill="#132342"/>
      </g>
      <g id="Group_3755" data-name="Group 3755" transform="translate(117.221 118.292)" opacity="0.3">
        <path id="Path_343" data-name="Path 343" d="M2743.782,2792.823l-12.253,14.567a.9.9,0,0,1-.541-.629c-.586-2.314,3.049-7.11,5.289-10.1C2739.806,2791.957,2742.429,2792.165,2743.782,2792.823Z" transform="translate(-2730.926 -2792.473)" fill="#000072"/>
      </g>
      <g id="Group_3756" data-name="Group 3756" transform="translate(120.94 115.147)">
        <path id="Path_344" data-name="Path 344" d="M2805.832,2741.972s-3.251-3.972-8.537,3.074c-2.238,2.986-5.874,7.784-5.288,10.1C2792.908,2758.7,2809.087,2749.019,2805.832,2741.972Z" transform="translate(-2791.945 -2740.856)" fill="#fff"/>
      </g>
      <g id="Group_3757" data-name="Group 3757" transform="translate(120.94 119.077)" opacity="0.3">
        <path id="Path_345" data-name="Path 345" d="M2806.2,2805.354c-1.021,6.5-13.408,13.452-14.192,10.357-.363-1.436.9-3.828,2.445-6.15a3.157,3.157,0,0,0-.089,1.564C2794.955,2813.483,2802.285,2810.013,2806.2,2805.354Z" transform="translate(-2791.94 -2805.354)" fill="#000072"/>
      </g>
      <g id="Group_3758" data-name="Group 3758" transform="translate(119.876 114.08)">
        <path id="Path_346" data-name="Path 346" d="M2776.858,2740.531a3.2,3.2,0,0,1-.675-.067,2.027,2.027,0,0,1-1.612-1.494c-.648-2.559,2.168-6.6,5.365-10.859l.1-.138c2.261-3.017,4.526-4.57,6.73-4.617a4.559,4.559,0,0,1,3.485,1.506l.086.1.056.123c1.126,2.437.467,5.287-1.9,8.243C2785.422,2737.162,2779.87,2740.531,2776.858,2740.531Zm-.233-2.148c.923.326,5.082-1.35,8.542-4.6,1.422-1.335,4.555-4.72,3.361-7.647a2.45,2.45,0,0,0-1.749-.646c-1.036.037-2.751.719-5.032,3.763l-.1.139C2779.892,2731.725,2776.273,2736.55,2776.625,2738.384Z" transform="translate(-2774.478 -2723.356)" fill="#132342"/>
      </g>
      <g id="Group_3759" data-name="Group 3759" transform="translate(37.404 117.584)" opacity="0.3">
        <path id="Path_347" data-name="Path 347" d="M1468.718,2785c-.486,5.9-5.769,12.362-13.016,12.528-4.5.106-6.35.878-8.878,2.262-1.464.8-5.526,1.319-10,1.29-5.606-.034-11.867-.924-14.521-3.2-2.591-2.216-.269-8.552,3.441-14.675-1.5,3.735-1.9,6.921-.211,8.363,2.654,2.274,8.915,3.164,14.521,3.2a18.1,18.1,0,0,0,8.642-1.675c5.162-2.085,7.952-.114,12.416-.656,5.4-.657,6.656-6.131,6.874-11.58A7.553,7.553,0,0,1,1468.718,2785Z" transform="translate(-1421.197 -2780.856)" fill="#000072"/>
      </g>
    </g>
  </g>
</svg>
