<svg xmlns="http://www.w3.org/2000/svg" width="16" height="14.667" viewBox="0 0 16 14.667">
  <path id="fi-rr-envelope" d="M12.667,1H3.333A3.337,3.337,0,0,0,0,4.333v8a3.337,3.337,0,0,0,3.333,3.333h9.333A3.337,3.337,0,0,0,16,12.333v-8A3.337,3.337,0,0,0,12.667,1ZM3.333,2.333h9.333A2,2,0,0,1,14.52,3.591L9.415,8.7a2,2,0,0,1-2.829,0L1.48,3.591A2,2,0,0,1,3.333,2.333Zm9.333,12H3.333a2,2,0,0,1-2-2v-7L5.643,9.64a3.338,3.338,0,0,0,4.715,0l4.309-4.307v7A2,2,0,0,1,12.667,14.333Z" transform="translate(0 -1)" fill="#2ea5ff"/>
</svg>
