<svg xmlns="http://www.w3.org/2000/svg" width="16.5" height="17.5" viewBox="0 0 16.5 17.5">
  <path id="fi-rr-home" d="M15.9,6.623,10.681,1.088a3.3,3.3,0,0,0-4.862,0L.6,6.623A2.242,2.242,0,0,0,0,8.17v7.163a2.128,2.128,0,0,0,2.062,2.189H14.437A2.128,2.128,0,0,0,16.5,15.333V8.17A2.242,2.242,0,0,0,15.9,6.623Zm-.771,8.71a.709.709,0,0,1-.687.73c-12.493.006.14,0-12.375,0a.709.709,0,0,1-.687-.73V8.17a.759.759,0,0,1,.2-.516L6.791,2.122a1.984,1.984,0,0,1,2.918,0l5.215,5.535a.759.759,0,0,1,.2.514Z" transform="translate(0 -0.021)" fill="#132342"/>
</svg>
