<svg xmlns="http://www.w3.org/2000/svg" width="15.994" height="16" viewBox="0 0 15.994 16">
  <path id="fi-rr-key" d="M5.006,0A5,5,0,0,0,3.649,9.811a4.912,4.912,0,0,0,2.587.032l5.272,5.271A3,3,0,0,0,13.646,16h0A2.359,2.359,0,0,0,16,13.643a3.005,3.005,0,0,0-.885-2.138l-.448-.448a1.343,1.343,0,0,0-.943-.39H12.67V10a1.333,1.333,0,0,0-1.333-1.333H10.67V7.609a1.324,1.324,0,0,0-.391-.943l-.433-.433a4.889,4.889,0,0,0-.031-2.587A5.019,5.019,0,0,0,5.529.027,5.1,5.1,0,0,0,5.006,0Zm0,8.667a3.667,3.667,0,1,1,3.526-4.66,3.6,3.6,0,0,1-.067,2.2.667.667,0,0,0,.159.69l.712.713V8.667A1.333,1.333,0,0,0,10.67,10h.667v.667A1.333,1.333,0,0,0,12.67,12h1.057l.448.448a1.679,1.679,0,0,1,.495,1.195,1.025,1.025,0,0,1-1.023,1.024,1.68,1.68,0,0,1-1.2-.5L6.9,8.618a.667.667,0,0,0-.691-.158A3.641,3.641,0,0,1,5,8.667ZM3.336,4A.667.667,0,1,1,4,4.667.667.667,0,0,1,3.336,4Z" transform="translate(-0.009)" fill="#2ea5ff"/>
</svg>
