<svg xmlns="http://www.w3.org/2000/svg" width="17.5" height="17.5" viewBox="0 0 17.5 17.5">
  <path id="fi-rr-rocket" d="M17.4,2.156l-.055.154c-1.1,3.039-2.146,5.929-4.222,8.5v.131A8.035,8.035,0,0,1,10.5,16.868a2.38,2.38,0,0,1-1.6.631,2.341,2.341,0,0,1-2.333-2.338v-.839a3.61,3.61,0,0,1-1.43-.868c-1.085-1.091.032.03-1.059-1.059a3.664,3.664,0,0,1-.9-1.458H2.452A2.454,2.454,0,0,1,0,8.485a2.479,2.479,0,0,1,.684-1.7A7.964,7.964,0,0,1,6.562,4.374h.131C9.26,2.3,12.147,1.248,15.185.154L15.342.1A1.6,1.6,0,0,1,17.4,2.156ZM2.452,9.478h.537a3.646,3.646,0,0,1,.65-1.786A18.492,18.492,0,0,1,4.958,6.011,6.2,6.2,0,0,0,1.75,7.78a1.026,1.026,0,0,0-.292.706A1,1,0,0,0,2.452,9.478Zm9,3.1a18.631,18.631,0,0,1-1.642,1.283A3.633,3.633,0,0,1,8.02,14.5v.661a.881.881,0,0,0,.88.879.927.927,0,0,0,.621-.252A6.562,6.562,0,0,0,11.447,12.579ZM15.995,1.5a.139.139,0,0,0-.158-.035l-.157.057C12.148,2.8,9.1,3.9,6.472,6.523A15.215,15.215,0,0,0,4.833,8.531a2.187,2.187,0,0,0,.243,2.808l1.088,1.086a2.187,2.187,0,0,0,2.806.244,15.178,15.178,0,0,0,2.006-1.639c2.625-2.625,3.726-5.678,5-9.211l.055-.154a.14.14,0,0,0-.035-.16Z" transform="translate(0 0.001)" fill="#132342"/>
</svg>
