<svg xmlns="http://www.w3.org/2000/svg" width="269.817" height="225" viewBox="0 0 269.817 225">
  <g id="Ideation_Session_Whiteboarding" data-name="Ideation Session Whiteboarding" transform="translate(-12.19 -35.36)">
    <path id="Path_474" data-name="Path 474" d="M213.936,190.237a491.9,491.9,0,0,1-60.347-3.41l-3.545-.465-.292-3.561c-.791-9.736-1.733-25.238-1.733-43.847s.942-34.111,1.733-43.847l.292-3.561,3.545-.466a493.168,493.168,0,0,1,60.347-3.41,491.9,491.9,0,0,1,60.347,3.41l3.545.466.292,3.561c.791,9.736,1.733,25.238,1.733,43.847s-.942,34.111-1.733,43.847l-.292,3.561-3.545.465A491.9,491.9,0,0,1,213.936,190.237Z" transform="translate(-59.65 -22.972)" fill="#2ea5ff"/>
    <path id="Path_475" data-name="Path 475" d="M253.429,92.2h15.479a63.792,63.792,0,0,0-1.935-7.375s-6.36-.37-13.544-.37-13.544.37-13.544.37A63.8,63.8,0,0,0,237.95,92.2Z" transform="translate(-99.144 -21.558)" fill="#132342"/>
    <path id="Path_476" data-name="Path 476" d="M277.18,185.911c-4.077.561-27.324,3.365-59.769,3.365a492.864,492.864,0,0,1-59.769-3.365c-.864-10.617-1.722-25.664-1.722-43.488s.858-32.871,1.722-43.488c4.077-.561,27.324-3.365,59.769-3.365a492.863,492.863,0,0,1,59.769,3.365c.864,10.617,1.722,25.664,1.722,43.488S278.038,175.294,277.18,185.911Z" transform="translate(-63.12 -26.441)" fill="#fff"/>
    <path id="Path_477" data-name="Path 477" d="M258.163,130s-.914,8.239,2.8,11.98H247.233c-3.741-3.741-2.8-11.98-2.8-11.98Z" transform="translate(-101.943 -41.562)" fill="#2ea5ff"/>
    <rect id="Rectangle_1541" data-name="Rectangle 1541" width="2.26" height="3.786" transform="translate(148.212 85.774)" fill="#404b7c"/>
    <path id="Path_478" data-name="Path 478" d="M293.56,111.36s-.914,8.239,2.8,11.98H282.613c-3.741-3.741-2.8-11.98-2.8-11.98h13.774Z" transform="translate(-117.48 -33.376)" fill="#2ea5ff"/>
    <rect id="Rectangle_1542" data-name="Rectangle 1542" width="2.26" height="3.786" transform="translate(168.055 75.303)" fill="#404b7c"/>
    <rect id="Rectangle_1543" data-name="Rectangle 1543" width="16.164" height="3.057" rx="1.528" transform="translate(189.911 76.307)" fill="#2ea5ff"/>
    <rect id="Rectangle_1544" data-name="Rectangle 1544" width="16.164" height="3.057" rx="1.528" transform="translate(189.911 81.865)" fill="#2ea5ff"/>
    <rect id="Rectangle_1545" data-name="Rectangle 1545" width="31.054" height="43.236" rx="5.22" transform="translate(105.044 79.656)" fill="#132342"/>
    <rect id="Rectangle_1546" data-name="Rectangle 1546" width="22.456" height="10.993" rx="2.61" transform="translate(109.345 108.118)" fill="#fff"/>
    <rect id="Rectangle_1547" data-name="Rectangle 1547" width="4.863" height="4.863" rx="1.19" transform="translate(115.649 101.439)" fill="#2ea5ff"/>
    <rect id="Rectangle_1548" data-name="Rectangle 1548" width="4.863" height="11.06" rx="1.19" transform="translate(123.866 95.241)" fill="#2ea5ff"/>
    <path id="Path_479" data-name="Path 479" d="M211.09,200.966a.28.28,0,0,1-.28-.28v-6.377a.28.28,0,0,1,.28-.28h11.89v-11.89a.28.28,0,0,1,.28-.28h11.89v-11.89a.28.28,0,0,1,.28-.28h11.89V157.78a.28.28,0,0,1,.28-.28h12.17a.28.28,0,1,1,0,.561h-11.89v11.89a.28.28,0,0,1-.28.28h-11.89v11.89a.28.28,0,0,1-.28.28h-11.89v11.89a.28.28,0,0,1-.28.28h-11.89v6.119A.28.28,0,0,1,211.09,200.966Z" transform="translate(-87.225 -53.638)" fill="#2ea5ff"/>
    <rect id="Rectangle_1549" data-name="Rectangle 1549" width="5.838" height="5.838" transform="translate(126.973 143.014)" fill="#132342"/>
    <rect id="Rectangle_1550" data-name="Rectangle 1550" width="5.838" height="17.117" transform="translate(139.205 131.736)" fill="#132342"/>
    <rect id="Rectangle_1551" data-name="Rectangle 1551" width="5.838" height="29.327" transform="translate(151.437 119.526)" fill="#132342"/>
    <rect id="Rectangle_1552" data-name="Rectangle 1552" width="5.838" height="41.761" transform="translate(163.551 107.092)" fill="#132342"/>
    <path id="Path_480" data-name="Path 480" d="M251.609,246.491H177.42a.28.28,0,1,1,0-.561h74.189a.28.28,0,1,1,0,.561Z" transform="translate(-72.439 -92.473)" fill="#9ab3da"/>
    <path id="Path_481" data-name="Path 481" d="M422.94,160.69a27.414,27.414,0,1,0,27.409,27.41,27.415,27.415,0,0,0-27.409-27.41Zm0,45.524a18.11,18.11,0,1,1,18.11-18.112,18.11,18.11,0,0,1-18.11,18.112Z" transform="translate(-168.341 -55.039)" fill="#f5f5f5"/>
    <circle id="Ellipse_16" data-name="Ellipse 16" cx="8.087" cy="8.087" r="8.087" transform="translate(246.511 124.977)" fill="#f5f5f5"/>
    <path id="Path_482" data-name="Path 482" d="M424.161,169.358a19.932,19.932,0,1,1-19.932,19.932H398.3a25.861,25.861,0,1,0,25.861-25.861v5.928Z" transform="translate(-169.562 -56.243)" fill="#2ea5ff"/>
    <path id="Path_483" data-name="Path 483" d="M46.217,346.578h-.062s-.415-.09-1.122-.286a.291.291,0,1,1,.157-.561c.667.191,1.06.28,1.066.28a.284.284,0,0,1-.039.566Z" transform="translate(-14.33 -136.296)" fill="#404b7c"/>
    <path id="Path_484" data-name="Path 484" d="M199.092,333.7a.28.28,0,0,1,0-.561q1.122,0,2.243-.039a.286.286,0,0,1,.292.269.28.28,0,0,1-.269.292q-1.122.034-2.243.039h0Zm-2.243,0h0q-1.122,0-2.243-.079a.28.28,0,0,1-.269-.292.275.275,0,0,1,.292-.269q1.122.05,2.243.073a.28.28,0,0,1-.011.544Zm6.73-.123a.28.28,0,1,1,0-.561q1.122-.067,2.243-.168a.286.286,0,0,1,.3.252.28.28,0,0,1-.252.3q-1.122.1-2.243.168h0Zm-11.172-.078h0q-1.122-.079-2.243-.185a.28.28,0,0,1-.252-.3.286.286,0,0,1,.3-.252q1.122.107,2.243.185a.28.28,0,0,1-.067.533Zm15.625-.32a.281.281,0,0,1-.034-.561q1.122-.135,2.2-.3a.284.284,0,0,1,.084.561q-1.122.168-2.243.3h-.034Zm-20.078-.1h-.045q-1.122-.129-2.243-.286a.28.28,0,0,1-.241-.314.286.286,0,0,1,.314-.241q1.122.151,2.21.28a.28.28,0,0,1-.011.533Zm24.5-.561a.282.282,0,1,1-.05-.561q1.122-.2,2.182-.443a.287.287,0,1,1,.118.561q-1.094.241-2.2.443Zm-28.923-.039h-.045q-1.122-.174-2.21-.376a.285.285,0,0,1,.1-.561q1.122.2,2.2.376a.28.28,0,0,1-.062.522Zm-4.4-.791h-.056q-1.094-.219-2.193-.46a.287.287,0,0,1,.118-.561q1.122.241,2.182.46a.28.28,0,0,1-.067.522Zm37.694-.135a.282.282,0,1,1-.067-.561c.718-.185,1.441-.381,2.148-.589a.291.291,0,0,1,.157.561c-.718.213-1.447.409-2.17.594Zm-42.063-.824h-.084q-1.088-.258-2.176-.561a.289.289,0,1,1,.14-.561l2.165.561a.28.28,0,0,1-.073.522Zm46.359-.437a.284.284,0,0,1-.09-.561c.7-.23,1.4-.482,2.1-.746a.281.281,0,0,1,.2.527c-.7.264-1.413.516-2.12.752Zm-50.689-.673h-.073q-1.077-.3-2.154-.611a.291.291,0,0,1,.157-.561q1.077.314,2.148.606a.28.28,0,0,1-.1.527Zm54.879-.9a.285.285,0,1,1-.107-.561c.684-.286,1.368-.589,2.036-.9a.281.281,0,1,1,.236.51c-.673.314-1.363.617-2.058.909a.28.28,0,0,1-.129.006Zm-59.192-.376h-.084q-1.066-.331-2.137-.679a.294.294,0,0,1,.174-.561l2.126.673a.286.286,0,0,1-.079.566Zm-4.251-1.38h-.09l-2.114-.74a.28.28,0,1,1,.191-.527q1.054.376,2.109.735a.28.28,0,0,1-.1.527Zm67.481-.151a.28.28,0,0,1-.129-.533c.656-.337,1.318-.69,1.957-1.049a.28.28,0,1,1,.275.488c-.651.365-1.312.723-1.98,1.06a.281.281,0,0,1-.129.022Zm-71.693-1.346a.279.279,0,0,1-.1,0l-2.1-.8a.28.28,0,1,1,.2-.522q1.043.4,2.086.791a.28.28,0,0,1-.1.516Zm75.591-.841a.28.28,0,0,1-.146-.522c.628-.387,1.256-.791,1.873-1.2a.281.281,0,0,1,.314.466c-.617.415-1.256.819-1.89,1.211a.275.275,0,0,1-.157.034Zm-79.769-.768a.282.282,0,0,1-.107,0l-2.075-.847a.28.28,0,1,1,.213-.516l2.064.847a.28.28,0,0,1-.1.516Zm83.476-1.711a.28.28,0,0,1-.163-.5c.6-.432,1.195-.886,1.772-1.34a.282.282,0,0,1,.348.443c-.561.46-1.189.914-1.789,1.352a.281.281,0,0,1-.168.034Zm-87.6,0a.275.275,0,0,1-.112,0l-2.053-.9a.28.28,0,1,1,.23-.51l2.047.892a.28.28,0,0,1-.112.494Zm-4.089-1.817a.286.286,0,0,1-.118,0l-2.03-.959a.3.3,0,1,1,.213-.561l2.025.942a.284.284,0,1,1-.09.561Zm95.2-.959a.28.28,0,0,1-.179-.494c.561-.477,1.122-.976,1.683-1.469a.282.282,0,1,1,.381.415c-.561.5-1.122,1-1.683,1.486A.28.28,0,0,1,240.46,319.372Zm-99.27-.965a.281.281,0,0,1-.123,0l-2.008-.987a.282.282,0,0,1,.252-.5l2.008.981a.28.28,0,0,1-.107.51Zm-4-1.991a.28.28,0,0,1-.129-.028l-1.991-1.026a.281.281,0,0,1,.258-.5l1.985,1.026a.28.28,0,0,1-.1.527Zm106.561-.067a.28.28,0,0,1-.2-.482l.684-.69q.443-.449.864-.909a.28.28,0,0,1,.409.381q-.426.46-.875.92l-.7.7a.28.28,0,0,1-.18.084Zm-110.52-2.025a.28.28,0,0,1-.135-.034l-1.969-1.066a.281.281,0,0,1,.269-.494l1.963,1.06a.28.28,0,0,1-.129.533Zm113.543-1.279a.28.28,0,0,1-.213-.46c.471-.561.937-1.155,1.374-1.744a.28.28,0,0,1,.449.337c-.443.595-.914,1.195-1.391,1.767a.28.28,0,0,1-.2.123ZM129.3,312.2a.28.28,0,0,1-.135-.034l-1.952-1.122a.281.281,0,0,1,.28-.488l1.946,1.122a.28.28,0,0,1-.14.522Zm-3.887-2.243a.274.274,0,0,1-.14-.039l-1.929-1.122a.28.28,0,1,1,.286-.482l1.924,1.122a.281.281,0,0,1-.118.55Zm-96.735-.4a.281.281,0,0,1-.1,0c-.707-.258-1.413-.561-2.1-.836a.281.281,0,1,1,.224-.516c.673.292,1.368.561,2.064.824a.28.28,0,0,1-.1.527Zm220.782-.073a.28.28,0,0,1-.236-.437c.409-.611.808-1.245,1.189-1.879a.28.28,0,1,1,.482.286c-.381.639-.791,1.284-1.2,1.9A.28.28,0,0,1,249.461,309.485Zm-224.9-1.716a.275.275,0,0,1-.129-.034c-.673-.348-1.335-.718-1.969-1.122a.28.28,0,0,1,.292-.477c.623.376,1.273.74,1.935,1.082a.281.281,0,0,1-.118.55Zm97.026-.073a.28.28,0,0,1-.146-.039l-1.907-1.167a.281.281,0,0,1,.3-.477l1.907,1.167a.28.28,0,0,1-.151.522Zm130.161-2.047a.28.28,0,0,1-.247-.415c.348-.651.679-1.318,1-1.985a.28.28,0,0,1,.5.241c-.32.679-.662,1.352-1.01,2.008a.281.281,0,0,1-.241.151Zm-231-.213a.281.281,0,0,1-.163-.05c-.617-.449-1.217-.92-1.772-1.408a.28.28,0,1,1,.37-.421c.561.471,1.122.937,1.733,1.374a.28.28,0,0,1-.163.5Zm97.026-.09a.28.28,0,0,1-.151-.045l-1.89-1.2a.28.28,0,1,1,.3-.471l1.884,1.195a.28.28,0,0,1-.14.527Zm-3.769-2.412a.281.281,0,0,1-.151-.045l-1.873-1.228a.28.28,0,0,1,.308-.466l1.868,1.228a.28.28,0,0,1-.146.516Zm-96.622-.443a.28.28,0,0,1-.2-.09,20.15,20.15,0,0,1-1.458-1.739.28.28,0,0,1,.449-.337,19.534,19.534,0,0,0,1.419,1.683.28.28,0,0,1-.2.494Zm236.273-.892a.28.28,0,0,1-.258-.387c.286-.679.561-1.374.819-2.07a.281.281,0,0,1,.527.2c-.258.707-.561,1.408-.824,2.092a.28.28,0,0,1-.258.179Zm-143.386-1.122a.28.28,0,0,1-.157-.045l-1.851-1.256a.281.281,0,0,1,.314-.465l1.851,1.256a.28.28,0,0,1-.146.5Zm-95.54-1.559a.28.28,0,0,1-.247-.14,17.649,17.649,0,0,1-.993-2.041.282.282,0,1,1,.522-.213,17.02,17.02,0,0,0,.965,1.974.28.28,0,0,1-.247.421Zm91.861-.97a.275.275,0,0,1-.157-.051l-.381-.264-1.458-1a.281.281,0,0,1,.314-.466l1.464,1.01.381.264a.28.28,0,0,1-.168.51Zm148.624-.533h-.084a.28.28,0,0,1-.179-.353c.224-.7.443-1.413.639-2.131a.29.29,0,1,1,.561.151c-.2.723-.421,1.453-.651,2.154A.28.28,0,0,1,255.221,297.415ZM102.9,295.424a.28.28,0,0,1-.157-.045l-1.862-1.234a.282.282,0,1,1,.308-.471l1.868,1.234a.28.28,0,0,1-.157.516ZM13.048,294.8a.28.28,0,0,1-.269-.207,17.852,17.852,0,0,1-.432-2.243.283.283,0,0,1,.561-.073,17.227,17.227,0,0,0,.421,2.154.28.28,0,0,1-.2.342Zm243.379-1.683h-.067a.28.28,0,0,1-.208-.336c.168-.712.331-1.441.482-2.176a.286.286,0,1,1,.561.112c-.151.735-.314,1.475-.482,2.193A.28.28,0,0,1,256.427,293.114Zm-157.272-.135a.281.281,0,0,1-.151-.045l-1.89-1.189a.281.281,0,1,1,.3-.477l1.9,1.195a.28.28,0,0,1-.146.516Zm-3.8-2.361a.28.28,0,0,1-.146-.039l-1.918-1.122a.28.28,0,1,1,.286-.482q.959.561,1.924,1.122a.28.28,0,0,1-.14.522Zm-82.887-.241a.28.28,0,0,1-.28-.275v-.213c0-.634.028-1.29.09-1.946v-.107a.282.282,0,1,1,.561.056V288c-.056.639-.09,1.279-.09,1.9v.2a.28.28,0,0,1-.275.286h0Zm244.843-1.649h-.045a.28.28,0,0,1-.23-.325q.185-1.122.331-2.2a.275.275,0,0,1,.314-.241.28.28,0,0,1,.241.314q-.146,1.122-.331,2.243a.28.28,0,0,1-.275.213ZM91.5,288.346a.28.28,0,0,1-.14-.039q-.976-.561-1.946-1.122a.28.28,0,1,1,.275-.488q.97.561,1.952,1.122a.28.28,0,0,1-.135.527Zm-3.926-2.176a.281.281,0,0,1-.135-.034q-.993-.561-1.974-1.049a.281.281,0,0,1,.258-.5q.981.516,1.98,1.049a.28.28,0,0,1-.107.533Zm-74.6-.219h-.073a.28.28,0,0,1-.2-.348,13.7,13.7,0,0,1,.785-2.126.281.281,0,1,1,.51.236,13.189,13.189,0,0,0-.757,2.008A.28.28,0,0,1,12.981,285.952Zm244.932-1.683h-.028a.28.28,0,0,1-.252-.308q.112-1.122.191-2.243a.281.281,0,0,1,.561.039q-.079,1.122-.2,2.243a.28.28,0,0,1-.28.292Zm-174.272-.191a.28.28,0,0,1-.123-.028q-1-.5-2-.993a.281.281,0,0,1,.247-.5q1,.488,2.008.993a.286.286,0,1,1-.135.555Zm-4.021-1.957a.275.275,0,0,1-.118,0q-1.021-.477-2.03-.931a.282.282,0,0,1,.23-.516q1.01.454,2.036.931a.28.28,0,0,1-.123.538Zm-64.766-.23a.28.28,0,0,1-.23-.437,16.172,16.172,0,0,1,1.4-1.789.28.28,0,0,1,.415.376,15.521,15.521,0,0,0-1.357,1.755.28.28,0,0,1-.236.118Zm60.683-1.6a.28.28,0,0,1-.112,0q-1.038-.443-2.058-.864a.282.282,0,0,1,.213-.522q1.026.421,2.064.869a.28.28,0,0,1-.107.538Zm182.7-.482h0a.28.28,0,0,1-.269-.292q.05-1.122.067-2.243a.28.28,0,0,1,.28-.275h0a.28.28,0,0,1,.275.286q0,1.122-.067,2.243a.28.28,0,0,1-.286.3ZM71.4,278.6a.281.281,0,0,1-.1,0q-1.049-.409-2.086-.791a.281.281,0,0,1,.2-.527q1.038.381,2.1.8a.28.28,0,0,1-.107.538Zm-53.572,0a.28.28,0,0,1-.185-.494,20.679,20.679,0,0,1,1.795-1.38.28.28,0,1,1,.32.46,20.08,20.08,0,0,0-1.744,1.346.281.281,0,0,1-.185.062Zm49.354-1.52h-.09q-1.066-.37-2.114-.712a.294.294,0,1,1,.174-.561q1.054.342,2.126.712a.28.28,0,0,1-.073.555Zm-45.7-1.015a.28.28,0,0,1-.135-.527c.645-.359,1.324-.7,2.025-1a.28.28,0,0,1,.23.51c-.684.3-1.346.634-1.98.981a.28.28,0,0,1-.118.034Zm41.452-.37h-.084q-1.082-.325-2.142-.623a.29.29,0,0,1,.151-.561q1.066.3,2.154.628a.28.28,0,0,1-.056.55Zm195.365-.337a.28.28,0,0,1-.28-.275q0-1.122-.056-2.243a.281.281,0,0,1,.269-.292.286.286,0,0,1,.292.269q.039,1.088.056,2.243a.28.28,0,0,1-.275.286h0ZM58.634,274.5h-.067q-1.122-.28-2.165-.527a.287.287,0,1,1,.123-.561q1.077.247,2.182.527a.283.283,0,1,1-.073.561Zm-33.09-.258a.284.284,0,1,1-.1-.561c.7-.247,1.419-.482,2.148-.69a.29.29,0,0,1,.151.561c-.718.2-1.43.432-2.109.679Zm28.715-.746H54.2q-1.122-.224-2.187-.415a.284.284,0,0,1,.1-.561q1.088.191,2.2.421a.28.28,0,0,1-.028.544Zm-24.419-.482a.282.282,0,0,1-.062-.561c.718-.157,1.464-.3,2.21-.421a.284.284,0,0,1,.09.561c-.735.118-1.469.258-2.182.415h-.028Zm20.011-.292H49.84q-1.122-.163-2.21-.292a.279.279,0,1,1,.062-.555q1.122.129,2.243.292a.28.28,0,0,1-.05.544Zm-15.569-.466a.281.281,0,1,1-.034-.561c.729-.084,1.486-.151,2.243-.2a.275.275,0,0,1,.3.264.28.28,0,0,1-.264.3c-.746.05-1.492.118-2.215.2h-.028Zm11.161-.084h0c-.74-.062-1.492-.112-2.243-.151a.28.28,0,0,1-.264-.292.275.275,0,0,1,.292-.264c.735.039,1.492.09,2.243.151a.286.286,0,1,1-.028.572Zm-6.7-.213a.28.28,0,1,1,0-.561h2.243a.28.28,0,0,1,.264.3.292.292,0,0,1-.286.275H38.718Zm219.392-1.088a.28.28,0,0,1-.28-.264q-.073-1.167-.168-2.243a.28.28,0,0,1,.252-.3.286.286,0,0,1,.3.252c.062.707.123,1.458.174,2.243a.28.28,0,0,1-.264.3h0Zm-.4-4.442a.28.28,0,0,1-.28-.247c-.1-.813-.2-1.554-.292-2.21a.28.28,0,0,1,.236-.32.286.286,0,0,1,.32.236c.1.662.2,1.4.292,2.243a.28.28,0,0,1-.247.314h-.028Z" transform="translate(0 -100.257)" fill="#2ea5ff"/>
    <path id="Path_486" data-name="Path 486" d="M107.36,44V55.456a5.193,5.193,0,0,0,5.188,5.193h2.041v4.206a1.122,1.122,0,0,0,1.89.78l4.986-4.986H133.58a5.193,5.193,0,0,0,5.193-5.193V44a5.193,5.193,0,0,0-5.193-5.193H112.548A5.193,5.193,0,0,0,107.36,44Z" transform="translate(-41.794 -1.515)" fill="#2ea5ff"/>
    <rect id="Rectangle_1553" data-name="Rectangle 1553" width="20.583" height="2.608" rx="1.304" transform="translate(70.983 43.369)" fill="#f5f5f5"/>
    <rect id="Rectangle_1554" data-name="Rectangle 1554" width="20.583" height="2.608" rx="1.304" transform="translate(70.983 49.392)" fill="#f5f5f5"/>
    <path id="Path_487" data-name="Path 487" d="M371.923,40.553v11.43a5.193,5.193,0,0,1-5.188,5.193h-2.041v4.206a1.122,1.122,0,0,1-1.89.78l-4.986-4.986H345.7a5.193,5.193,0,0,1-5.193-5.193V40.553A5.193,5.193,0,0,1,345.7,35.36h21.032A5.193,5.193,0,0,1,371.923,40.553Z" transform="translate(-144.183 0)" fill="#f5f5f5"/>
    <rect id="Rectangle_1555" data-name="Rectangle 1555" width="20.583" height="2.608" rx="1.304" transform="translate(222.322 44.036) rotate(180)" fill="#2ea5ff"/>
    <rect id="Rectangle_1556" data-name="Rectangle 1556" width="20.583" height="2.608" rx="1.304" transform="translate(222.322 50.06) rotate(180)" fill="#2ea5ff"/>
    <path id="Path_488" data-name="Path 488" d="M1.329,0H2.412A1.329,1.329,0,0,1,3.741,1.329v.948A1.329,1.329,0,0,1,2.412,3.606H1.329A1.329,1.329,0,0,1,0,2.277V1.346A1.335,1.335,0,0,1,1.329,0Z" transform="translate(242.602 78.266) rotate(26.15)" fill="#f5f5f5"/>
    <path id="Path_489" data-name="Path 489" d="M0,0H8.054V5.642A1.329,1.329,0,0,1,6.725,6.971H1.335A1.329,1.329,0,0,1,.006,5.642V0Z" transform="translate(242.955 72.647) rotate(26.15)" fill="#2ea5ff"/>
    <path id="Path_490" data-name="Path 490" d="M420.847,105.111l8.1,1.795a.574.574,0,1,0,.247-1.122l-8.1-1.795a.574.574,0,0,0-.247,1.122" transform="translate(-179.265 -30.133)" fill="#f5f5f5"/>
    <path id="Path_491" data-name="Path 491" d="M418.827,109.191l8.788,1.952a.574.574,0,1,0,.247-1.122l-8.788-1.952a.574.574,0,1,0-.247,1.122" transform="translate(-178.378 -31.925)" fill="#f5f5f5"/>
    <path id="Path_492" data-name="Path 492" d="M418.417,113.661l7.885,1.75a.574.574,0,1,0,.247-1.122l-7.885-1.75a.574.574,0,1,0-.247,1.122" transform="translate(-178.198 -33.888)" fill="#f5f5f5"/>
    <circle id="Ellipse_17" data-name="Ellipse 17" cx="10.527" cy="10.527" r="10.527" transform="translate(236.587 70.846) rotate(-63.85)" fill="#2ea5ff"/>
    <path id="Path_493" data-name="Path 493" d="M432.309,94.062a.28.28,0,0,1,0-.561c2.081-.163,3.887-2.159,4.425-4a3.265,3.265,0,0,0-1.015-3.713,2.956,2.956,0,0,0-2-.7,4.047,4.047,0,0,1-1.6,3.73,1.077,1.077,0,0,1-1.346-.168c-.561-.561-.3-1.879.594-2.9a3.6,3.6,0,0,1,1.683-1.122,2.288,2.288,0,0,0-1.918-1.509c-1.346-.157-2.636.813-3.438,2.6a5.85,5.85,0,0,0,1.049,6.584.28.28,0,0,1-.381.409,6.433,6.433,0,0,1-1.178-7.224c.909-2.013,2.417-3.1,4.016-2.922a2.849,2.849,0,0,1,2.406,1.963,3.505,3.505,0,0,1,2.445.808,3.794,3.794,0,0,1,1.217,4.313,6.113,6.113,0,0,1-4.919,4.4h0Zm.836-8.867a3.146,3.146,0,0,0-1.374.925c-.735.841-.931,1.823-.617,2.137a.516.516,0,0,0,.684.067A3.476,3.476,0,0,0,433.144,85.2Z" transform="translate(-181.972 -20.722)" fill="#f5f5f5"/>
    <rect id="Rectangle_1557" data-name="Rectangle 1557" width="2.428" height="2.344" rx="1.172" transform="matrix(0.946, -0.323, 0.323, 0.946, 50.12, 78.32)" fill="#f5f5f5"/>
    <path id="Path_494" data-name="Path 494" d="M0,.017H5.216V3.186A1.329,1.329,0,0,1,3.887,4.515H1.357A1.329,1.329,0,0,1,0,3.186V.017Z" transform="matrix(0.946, -0.323, 0.323, 0.946, 47.709, 75.561)" fill="#2ea5ff"/>
    <path id="Path_495" data-name="Path 495" d="M75.859,107.294l4.532-2.888a.37.37,0,0,0-.4-.623l-4.532,2.905a.37.37,0,0,0,.4.623" transform="translate(-27.719 -30.028)" fill="#f5f5f5"/>
    <path id="Path_496" data-name="Path 496" d="M76.806,109.911l4.907-3.135a.37.37,0,0,0-.4-.623l-4.924,3.135a.37.37,0,0,0,.4.623" transform="translate(-28.127 -31.068)" fill="#f5f5f5"/>
    <path id="Path_497" data-name="Path 497" d="M78.679,112.4l4.414-2.8a.37.37,0,0,0-.4-.623l-4.414,2.8a.37.37,0,0,0,.4.623" transform="translate(-28.957 -32.307)" fill="#f5f5f5"/>
    <circle id="Ellipse_18" data-name="Ellipse 18" cx="6.82" cy="6.82" r="6.82" transform="matrix(0.946, -0.323, 0.323, 0.946, 39.565, 64.754)" fill="#2ea5ff"/>
    <path id="Path_498" data-name="Path 498" d="M74.452,98.335A4.268,4.268,0,0,1,70.526,95.5a2.777,2.777,0,0,1,.533-3.292,1.952,1.952,0,0,1,2.041-.247,2.4,2.4,0,0,1,1.492-.723A2.552,2.552,0,0,1,77.229,92.7a4.053,4.053,0,0,1-.247,4.38.28.28,0,1,1-.426-.365,3.553,3.553,0,0,0,.185-3.752,2.03,2.03,0,0,0-2.064-1.183,1.873,1.873,0,0,0-1.122.494,2.658,2.658,0,0,1,.925,2.479.791.791,0,0,1-.785.606h0c-.656,0-1.122-.864-1.155-1.683a2.473,2.473,0,0,1,.224-1.245,1.391,1.391,0,0,0-1.374.219,2.252,2.252,0,0,0-.359,2.653,3.685,3.685,0,0,0,3.4,2.473.275.275,0,0,1,.292.269.28.28,0,0,1-.269.292h0Zm-1.195-5.558a1.969,1.969,0,0,0-.146.886c.045.7.393,1.167.6,1.172h0a.241.241,0,0,0,.247-.213,2.154,2.154,0,0,0-.7-1.845Z" transform="translate(-25.493 -24.529)" fill="#f5f5f5"/>
    <path id="Path_499" data-name="Path 499" d="M31.68,114.323l.723-.1a6.209,6.209,0,0,0,5.407-5.182l.1-.7.118.7a6.209,6.209,0,0,0,5.407,5.182l.707.1-.723.1a6.209,6.209,0,0,0-5.39,5.188l-.1.7-.1-.7a6.209,6.209,0,0,0-5.407-5.182Z" transform="translate(-8.559 -32.054)" fill="#f5f5f5"/>
    <path id="Path_500" data-name="Path 500" d="M31.68,259.162l.454-.062a3.926,3.926,0,0,0,3.365-3.253l.062-.437.062.437a3.926,3.926,0,0,0,3.365,3.253l.454.062-.454.062a3.926,3.926,0,0,0-3.365,3.253l-.062.437-.034-.443a3.926,3.926,0,0,0-3.365-3.253Z" transform="translate(-8.559 -96.636)" fill="#f5f5f5"/>
    <path id="Path_501" data-name="Path 501" d="M294.87,289.692l.454-.062a3.926,3.926,0,0,0,3.365-3.253l.062-.437.062.437a3.926,3.926,0,0,0,3.365,3.253l.454.062-.454.062a3.926,3.926,0,0,0-3.365,3.253l-.062.437-.062-.437a3.926,3.926,0,0,0-3.365-3.253Z" transform="translate(-124.14 -110.043)" fill="#2ea5ff"/>
    <path id="Path_502" data-name="Path 502" d="M388.57,144.58l.561-.073a4.762,4.762,0,0,0,4.145-3.976l.079-.561.079.561a4.762,4.762,0,0,0,4.145,3.976l.561.073-.561.073a4.762,4.762,0,0,0-4.145,3.976l-.079.561-.079-.561a4.762,4.762,0,0,0-4.145-3.976Z" transform="translate(-165.289 -45.94)" fill="#f5f5f5"/>
    <circle id="Ellipse_19" data-name="Ellipse 19" cx="1.548" cy="1.548" r="1.548" transform="translate(81.32 73.026)" fill="#2ea5ff"/>
    <circle id="Ellipse_20" data-name="Ellipse 20" cx="1.167" cy="1.167" r="1.167" transform="translate(92.733 169.828)" fill="#f5f5f5"/>
    <circle id="Ellipse_21" data-name="Ellipse 21" cx="2.698" cy="2.698" r="2.698" transform="translate(96.508 176.474)" fill="#2ea5ff"/>
    <circle id="Ellipse_22" data-name="Ellipse 22" cx="0.897" cy="0.897" r="0.897" transform="translate(176.321 190.495)" fill="#f5f5f5"/>
    <circle id="Ellipse_23" data-name="Ellipse 23" cx="1.346" cy="1.346" r="1.346" transform="translate(237.078 101.338)" fill="#2ea5ff"/>
    <circle id="Ellipse_24" data-name="Ellipse 24" cx="1.256" cy="1.256" r="1.256" transform="translate(223.416 71.86)" fill="#f5f5f5"/>
    <path id="Path_503" data-name="Path 503" d="M148.386,392.3l-.869,5.608-.881,5.648c-1.683,1.122-4.386.073-4.386.073l.308-7.358.163-3.971Z" transform="translate(-57.116 -156.752)" fill="#ecbdbb"/>
    <path id="Path_504" data-name="Path 504" d="M148.627,392.3l-.869,5.608a11.044,11.044,0,0,1-4.958-1.638l.163-3.971Z" transform="translate(-57.358 -156.752)" fill="#132342"/>
    <path id="Path_505" data-name="Path 505" d="M157.112,425.529H136.72a18.68,18.68,0,0,1,.2-2.3,48.888,48.888,0,0,1,2.305-11.75,14.757,14.757,0,0,0,5.844.123,22.626,22.626,0,0,0,3.6,4.414,15.615,15.615,0,0,1,4.156,2.485C155.413,420.493,157.348,423.813,157.112,425.529Z" transform="translate(-54.688 -165.175)" fill="#253555"/>
    <ellipse id="Ellipse_25" data-name="Ellipse 25" cx="2.271" cy="1.436" rx="2.271" ry="1.436" transform="translate(84.107 253.697) rotate(-76.45)" fill="#132342"/>
    <path id="Path_506" data-name="Path 506" d="M149.625,419.219a.28.28,0,0,1-.168-.056c-2.7-2.019-4.072-6.035-4.128-6.2a.281.281,0,0,1,.533-.179c0,.039,1.374,4.021,3.926,5.934a.28.28,0,0,1-.163.5Z" transform="translate(-58.462 -165.662)" fill="#132342"/>
    <path id="Path_507" data-name="Path 507" d="M154.858,420.812c-2.6-1.991-6.2-1.318-6.2-1.318-4.655,1.817-4.251,7.212-4.251,7.212h-7.487c-.18,1.425-.2,2.3-.2,2.3h20.392C157.348,427.284,157.449,422.8,154.858,420.812Z" transform="translate(-54.688 -168.646)" fill="#132342"/>
    <path id="Path_508" data-name="Path 508" d="M135.5,297.25c-2.17,12.339-7.179,35.389-7.179,35.389a9.072,9.072,0,0,1-1.89.78,10.421,10.421,0,0,1-5.412.034,15.755,15.755,0,0,1-5.188-2.339c.32-8.413,2.518-35.619,2.518-35.619s-10.892-9.585-17.543-16.68a52.474,52.474,0,0,1-3.623-4.212c-.376-.5-.735-1.032-1.054-1.565-3.926-6.371-4.173-14.1-.494-17.448,7.482-6.8,16.719,3.169,16.719,3.169S127.367,275.932,133.711,285c1.649,2.361,2.72,4.167,2.771,4.975A52.738,52.738,0,0,1,135.5,297.25Z" transform="translate(-35.498 -95.672)" fill="#f5f5f5"/>
    <path id="Path_509" data-name="Path 509" d="M103.227,292.192A52.482,52.482,0,0,1,99.6,287.98c-.376-.5-.735-1.032-1.054-1.565a2.934,2.934,0,0,0,1.368-.393,7.59,7.59,0,0,0,.628-2.333Z" transform="translate(-37.925 -109.055)" fill="#ddd"/>
    <path id="Path_510" data-name="Path 510" d="M162.814,321.888a3.623,3.623,0,0,1-1.9.892c-2.591.348-5.1-2.378-5.608-6.091s1.211-6.994,3.808-7.341a3.505,3.505,0,0,1,1.89.28c1.649,2.361,2.72,4.167,2.771,4.975A49.026,49.026,0,0,1,162.814,321.888Z" transform="translate(-62.812 -120.31)" fill="#ddd"/>
    <path id="Path_511" data-name="Path 511" d="M122.941,342.76h-.028a.28.28,0,0,1-.252-.308c.852-8.351,3.6-32.927,3.847-35.165-12.428-9.1-25.49-24.509-25.625-24.677a.28.28,0,0,1,.426-.359c.129.157,13.247,15.631,25.653,24.677a.28.28,0,0,1,.112.258c-.028.264-2.978,26.612-3.864,35.333A.28.28,0,0,1,122.941,342.76Z" transform="translate(-38.929 -108.389)" fill="#ddd"/>
    <path id="Path_512" data-name="Path 512" d="M142.089,390.752a11.811,11.811,0,0,1-7.156-2.58.28.28,0,0,1,.37-.421c.05.045,5.02,4.33,11.065,1.441a.28.28,0,1,1,.241.5A10.414,10.414,0,0,1,142.089,390.752Z" transform="translate(-53.865 -154.727)" fill="#ddd"/>
    <path id="Path_513" data-name="Path 513" d="M38.746,397.991l-1.155,2.8-2.215,5.4L31.5,405.54l1.812-5.519,1.155-3.511Z" transform="translate(-8.48 -158.601)" fill="#ecbdbb"/>
    <path id="Path_514" data-name="Path 514" d="M40.165,397.991l-1.155,2.8a14.688,14.688,0,0,1-4.279-.768l1.155-3.517Z" transform="translate(-9.899 -158.601)" fill="#132342"/>
    <path id="Path_515" data-name="Path 515" d="M44.381,424.914H24a18.682,18.682,0,0,1,.2-2.3,33.241,33.241,0,0,1,4.15-12.535,5.749,5.749,0,0,0,4.717.909,17.214,17.214,0,0,0,2.872,4.414,8.334,8.334,0,0,1,5.608,1.615C44.112,419.009,44.622,423.2,44.381,424.914Z" transform="translate(-5.186 -164.56)" fill="#253555"/>
    <ellipse id="Ellipse_26" data-name="Ellipse 26" cx="2.271" cy="1.436" rx="2.271" ry="1.436" transform="translate(20.882 253.693) rotate(-76.45)" fill="#132342"/>
    <path id="Path_516" data-name="Path 516" d="M37.333,418.745a.281.281,0,0,1-.168-.056c-2.72-2.03-3.545-6.657-3.578-6.848a.28.28,0,0,1,.23-.325.275.275,0,0,1,.325.23c0,.045.824,4.6,3.365,6.495a.28.28,0,0,1-.174.5Z" transform="translate(-9.395 -165.188)" fill="#132342"/>
    <path id="Path_517" data-name="Path 517" d="M42.127,420.812c-2.6-1.991-6.2-1.318-6.2-1.318-4.655,1.817-4.251,7.212-4.251,7.212H24.185A19.92,19.92,0,0,0,24,429H44.381C44.622,427.284,44.723,422.8,42.127,420.812Z" transform="translate(-5.186 -168.646)" fill="#132342"/>
    <path id="Path_518" data-name="Path 518" d="M73.1,257.5s-2.243,11.952-2.743,13.387a6.007,6.007,0,0,1-2.288.437c-2.872,13.146-7.482,31.205-7.852,32.658-.561,2.03-17.078,30.762-17.078,30.762-8.413,1.75-11.907-4.61-11.907-4.61.561-1.683,12-28.513,12-28.513s3.3-33.651,3.774-35.591,5.412-12.855,10.908-15.642c6.113-3.124,12.2.112,12.417,7.246Z" transform="translate(-8.362 -93.908)" fill="#f5f5f5"/>
    <path id="Path_519" data-name="Path 519" d="M64.957,277.154a8.177,8.177,0,0,1-2.243-.348.291.291,0,1,1,.157-.561c1.963.561,3.556.387,4.734-.522,2.445-1.89,2.372-6.349,2.367-6.394a.28.28,0,0,1,.561,0c0,.2.084,4.79-2.586,6.848A4.745,4.745,0,0,1,64.957,277.154Z" transform="translate(-22.094 -102.626)" fill="#ddd"/>
    <path id="Path_520" data-name="Path 520" d="M38.78,343.928a.28.28,0,0,1-.258-.393l11.217-26.3,3.679-34.453a.275.275,0,0,1,.308-.247.28.28,0,0,1,.247.309l-3.685,34.492a.28.28,0,0,1,0,.079l-11.217,26.36A.281.281,0,0,1,38.78,343.928Z" transform="translate(-11.553 -108.548)" fill="#ddd"/>
    <ellipse id="Ellipse_27" data-name="Ellipse 27" cx="6.775" cy="4.739" rx="6.775" ry="4.739" transform="translate(40.003 213.749) rotate(-76.83)" fill="#ddd"/>
    <path id="Path_521" data-name="Path 521" d="M42.175,395.173a11.252,11.252,0,0,1-7.885-3.763.281.281,0,1,1,.432-.359c.039.045,3.831,4.532,9.254,3.365a.287.287,0,1,1,.118.561A9.14,9.14,0,0,1,42.175,395.173Z" transform="translate(-9.676 -156.159)" fill="#ddd"/>
    <path id="Path_522" data-name="Path 522" d="M95.366,279.218h-.292a.28.28,0,0,1-.275-.286.292.292,0,0,1,.286-.275,7.852,7.852,0,0,0,2.956-.376c.533-1.767,2.271-11.424,2.288-11.525a.285.285,0,0,1,.561.1c-.073.421-1.851,10.286-2.35,11.727a.28.28,0,0,1-.135.157A7.413,7.413,0,0,1,95.366,279.218Z" transform="translate(-36.279 -101.516)" fill="#ddd"/>
    <path id="Path_523" data-name="Path 523" d="M96.691,278.991h-.05a.28.28,0,0,1-.224-.325L98.7,266.276a.285.285,0,0,1,.561.1l-2.3,12.383A.28.28,0,0,1,96.691,278.991Z" transform="translate(-36.986 -101.305)" fill="#ddd"/>
    <path id="Path_524" data-name="Path 524" d="M184.8,146.349s2.563-7.482,3.169-7.885c.51-.342,10.219,0,13.253.1a.858.858,0,0,1,.824.937h0a.858.858,0,0,1-.7.774l-8.469,1.6a.735.735,0,0,0-.561.987h0a.735.735,0,0,0,.847.46l1.223-.269.28-.46a1.032,1.032,0,0,1,1.357-.376h0a1.032,1.032,0,0,1,.482,1.3l-.561,1.363a4.044,4.044,0,0,1-2.8,2.428l-5.44,1.273Z" transform="translate(-75.802 -45.213)" fill="#ecbdbb"/>
    <path id="Path_525" data-name="Path 525" d="M160.74,156.788c-2.126,5.743-8.446,22.473-10.292,23.359-.981.477-5.261-.387-10.168-1.806-6.169-1.778-13.371-4.425-16.186-6.349a7.645,7.645,0,0,1,4.9-13.662c6.652.034,17.386,5.7,17.386,5.7l7.291-10.83a4.021,4.021,0,0,1,5.524-1.155l.079.056a3.993,3.993,0,0,1,1.469,4.683Z" transform="translate(-47.856 -50.963)" fill="#132342"/>
    <path id="Path_526" data-name="Path 526" d="M140.281,186.547c-6.169-1.778-13.371-4.425-16.186-6.349a7.3,7.3,0,0,1-2.911-6.6,12.512,12.512,0,0,1,5.923-3.477A131.613,131.613,0,0,0,140.281,186.547Z" transform="translate(-47.856 -59.18)" fill="#253555"/>
    <path id="Path_527" data-name="Path 527" d="M185.756,158.252H185.7a.28.28,0,0,1-.219-.331,2.877,2.877,0,0,0-1.5-3.13,3.068,3.068,0,0,0-3.421.393.28.28,0,1,1-.387-.4,3.646,3.646,0,0,1,4.061-.488,3.491,3.491,0,0,1,1.8,3.746A.28.28,0,0,1,185.756,158.252Z" transform="translate(-73.724 -52.052)" fill="#253555"/>
    <path id="Path_528" data-name="Path 528" d="M169.507,183.534a.28.28,0,0,1-.28-.252,17.582,17.582,0,0,0-2.911-8.306.28.28,0,1,1,.443-.342,17.8,17.8,0,0,1,3.023,8.592.28.28,0,0,1-.252.308H169.5Z" transform="translate(-67.654 -61.109)" fill="#253555"/>
    <path id="Path_529" data-name="Path 529" d="M65.561,257.33,65,261.06s7.37,3.505,20,3.236,16.45-2.518,16.45-2.518L101.18,258A70.869,70.869,0,0,1,65.561,257.33Z" transform="translate(-23.192 -97.479)" fill="#253555"/>
    <path id="Path_530" data-name="Path 530" d="M93.609,261.094a18.084,18.084,0,0,0-.224,4.986c.224.18,6.73.314,7.1-.045s.561-4.672.314-4.9S94.148,260.511,93.609,261.094Z" transform="translate(-35.615 -99)" fill="#4a556a"/>
    <path id="Path_531" data-name="Path 531" d="M76.558,259.41l-.808,4.9,1.666.269.763-4.941Z" transform="translate(-27.913 -98.393)" fill="#132342"/>
    <path id="Path_532" data-name="Path 532" d="M115.43,260.473l.454,4.762,1.677-.191-.51-4.784Z" transform="translate(-45.338 -98.766)" fill="#132342"/>
    <path id="Path_533" data-name="Path 533" d="M104.791,207.869c.269,1.441-3.152,8.626-3.6,8.974s-4.677,1.98-14.021,2.7S66.5,218.195,64.7,217.477s-4.582-5.306-4.582-7.011a51.108,51.108,0,0,1,1.346-7c.785-3.517,1.912-8.413,3.326-14.834.78-3.589,1.559-6.949,2.277-9.949,1.991-8.345,3.522-13.915,3.522-13.915,7.325-1.8,19.372-2.653,19.372-2.653l12.221.9c7.465,9.613-.179,29.478,0,33.163S104.522,206.434,104.791,207.869Z" transform="translate(-21.049 -55.663)" fill="#132342"/>
    <path id="Path_534" data-name="Path 534" d="M74.073,193.773s-2.434,15.507-11.553,22.681c.785-3.517,1.912-8.413,3.326-14.834.78-3.589,1.559-6.949,2.277-9.949a22.271,22.271,0,0,1,5.951,2.1Z" transform="translate(-22.103 -68.644)" fill="#253555"/>
    <path id="Path_535" data-name="Path 535" d="M138.547,180.6h0a.28.28,0,0,1-.252-.3c.623-6.511-.14-11.357-2.327-14.829a.281.281,0,1,1,.477-.3c2.243,3.578,3.045,8.547,2.412,15.182A.28.28,0,0,1,138.547,180.6Z" transform="translate(-54.338 -56.947)" fill="#253555"/>
    <path id="Path_536" data-name="Path 536" d="M110.432,223.291a.28.28,0,0,1-.247-.409,25.137,25.137,0,0,0,2.6-13.6c-.679-9.243-.606-16.265.208-20.9a20.577,20.577,0,0,0-1.038-10.8.281.281,0,1,1,.516-.224,20.79,20.79,0,0,1,1.077,11.127c-.808,4.577-.869,11.565-.2,20.751a25.692,25.692,0,0,1-2.658,13.9A.28.28,0,0,1,110.432,223.291Z" transform="translate(-43.021 -62.285)" fill="#253555"/>
    <path id="Path_537" data-name="Path 537" d="M106.349,159.85c-4.8,0-6.876,7.246-4.38,11.525,0,0,1.856-4.616,5.221-4.818s5.7,4.279,5.7,4.279S114.571,159.85,106.349,159.85Z" transform="translate(-38.96 -54.67)" fill="#253555"/>
    <rect id="Rectangle_1558" data-name="Rectangle 1558" width="10.191" height="18.738" rx="1.34" transform="translate(16.145 106.765) rotate(-18.7)" fill="#f5f5f5"/>
    <rect id="Rectangle_1559" data-name="Rectangle 1559" width="10.191" height="18.738" rx="1.34" transform="translate(14.672 107.262) rotate(-18.7)" fill="#132342"/>
    <path id="Path_538" data-name="Path 538" d="M58.165,185.927C55.221,190.711,47.9,196.953,44,200.077a4.863,4.863,0,0,1-5.648.353c-6.657-4.2-12.226-12.546-12.226-12.546.067-5.4,4.38-5.608,4.38-5.608l8.833,2.563s11.834-17.661,16.315-17.947C61.127,166.488,62.815,178.305,58.165,185.927Z" transform="translate(-6.122 -57.759)" fill="#132342"/>
    <path id="Path_539" data-name="Path 539" d="M68.319,195.365a.28.28,0,0,1-.191-.488c3.971-3.606,6.73-6.657,8.2-9.058A19.34,19.34,0,0,0,78.4,171.428a5.994,5.994,0,0,0-2.714-3.926.281.281,0,0,1,.247-.5c1.34.656,2.384,2.131,3.006,4.279a19.961,19.961,0,0,1-2.137,14.84,47.431,47.431,0,0,1-8.295,9.175A.28.28,0,0,1,68.319,195.365Z" transform="translate(-24.525 -57.797)" fill="#253555"/>
    <path id="Path_540" data-name="Path 540" d="M28.98,202.727a.28.28,0,1,1,0-.561,4.173,4.173,0,0,0,3.331-1.256,4.831,4.831,0,0,0,.886-3.455.284.284,0,0,1,.561-.084,5.445,5.445,0,0,1-1.015,3.926A4.807,4.807,0,0,1,28.98,202.727Z" transform="translate(-7.25 -71.042)" fill="#253555"/>
    <path id="Path_541" data-name="Path 541" d="M52.876,208.348H52.8a.28.28,0,0,1-.191-.359c1.683-5.659-2.025-8.345-2.182-8.452a.28.28,0,0,1,.32-.46c.045.028,4.19,3.017,2.4,9.074A.28.28,0,0,1,52.876,208.348Z" transform="translate(-16.743 -71.878)" fill="#253555"/>
    <path id="Path_542" data-name="Path 542" d="M30.648,195.6a4.027,4.027,0,0,1-2.95,4.061,7.123,7.123,0,0,1-1.548.292,8.25,8.25,0,0,1,.185-1.683,4.734,4.734,0,0,1,2.894-3.584,4.358,4.358,0,0,1,1.3-.325,5.777,5.777,0,0,1,.118,1.239Z" transform="translate(-6.131 -69.826)" fill="#253555"/>
    <path id="Path_543" data-name="Path 543" d="M29.3,194.458a4.027,4.027,0,0,1-2.95,4.061l-1.363-1.4-1.9-1.957,2.092-3.4,2.709,1.772Z" transform="translate(-4.787 -68.684)" fill="#ecbdbb"/>
    <path id="Path_544" data-name="Path 544" d="M15.508,170.519l7.723-3.012a.791.791,0,0,1,1.015.421h0a.791.791,0,0,1-.3.981L18.257,172.5l.269.561L24.7,170.21a.791.791,0,0,1,1.043.353h0a.791.791,0,0,1-.247,1l-5.816,4.122.337.5,5.485-2.726a.74.74,0,0,1,.965.286h0a.74.74,0,0,1-.179.953l-5.048,3.982.37.561,3.573-2.608a.74.74,0,0,1,1.038.157h0a.74.74,0,0,1,0,.841l-3.045,4.655a4.016,4.016,0,0,1-2.243,1.683l-1.862.533a11.856,11.856,0,0,1-4.851-12.44,2.109,2.109,0,0,1,1.3-1.548Z" transform="translate(-0.755 -58.009)" fill="#ecbdbb"/>
    <path id="Path_545" data-name="Path 545" d="M22.817,185.957h-.079c-1.391-.4-1.531-1.021-1.565-1.722,0-.488-.039-.869-1-1.228a1.868,1.868,0,0,1-1.5-2.176,1.284,1.284,0,0,0-.74-1.481A1.683,1.683,0,0,1,17,177.365c.056-.516.067-.8-.308-1.038a1.722,1.722,0,0,1-.634-2.311.28.28,0,0,1,.494.264,1.167,1.167,0,0,0,.443,1.576,1.425,1.425,0,0,1,.561,1.565,1.163,1.163,0,0,0,.651,1.43,1.823,1.823,0,0,1,1.032,2c-.028.69-.05,1.183,1.122,1.626,1.307.488,1.335,1.178,1.357,1.727s.039.886,1.161,1.206a.28.28,0,0,1-.056.55Z" transform="translate(-1.603 -60.834)" fill="#404b7c"/>
    <path id="Path_546" data-name="Path 546" d="M111.707,149.67v7.684a1.828,1.828,0,0,1-2.025,1.683,3.219,3.219,0,0,1-2.653-1.683l.92-6.528.157-1.122h3.6Z" transform="translate(-41.649 -50.2)" fill="#ecbdbb"/>
    <path id="Path_547" data-name="Path 547" d="M112.432,149.661v4.19a4.391,4.391,0,0,1-3.752-3.079l.157-1.122h3.6Z" transform="translate(-42.374 -50.191)" fill="#132342"/>
    <path id="Path_548" data-name="Path 548" d="M106.114,133.041s.09,5.3.673,6.607,6.382,3.012,7.684,2.339,2.518-9.843,1.57-13.124S105.8,126.389,106.114,133.041Z" transform="translate(-41.244 -40.239)" fill="#ecbdbb"/>
    <path id="Path_549" data-name="Path 549" d="M114.933,124.653c-.561-1.75,1.481-7.325-3.057-7.773-3.118-.308-7.325,2.311-9.647,3.982,2.485-2.709,1.974-5.451.028-4.487-2.311,1.178-1.75,5.8-1.75,5.8-.808-3.365-4.717-5.4-5.048-3.281-.208,1.408,2.041,2.518,3.561,3.1-1.537-.056-3.786.286-4.19,2.7-.628,3.73,3.73,6.382,6.068,7.459l1.57.045-.28-1.98s2.473.09,2.025-3.326c0,0,9.753,5.21,13.393-.673A2.612,2.612,0,0,1,114.933,124.653Z" transform="translate(-36.266 -35.492)" fill="#132342"/>
    <path id="Path_550" data-name="Path 550" d="M102.574,141.584s-1.526-3.819-4.762-2.563-.561,8.222,4.851,4.223Z" transform="translate(-36.986 -45.412)" fill="#ecbdbb"/>
    <path id="Path_551" data-name="Path 551" d="M102.7,143.677a.28.28,0,0,1-.258-.163s-1.122-2.451-3.23-2.664a.28.28,0,0,1-.252-.308.286.286,0,0,1,.308-.252c2.423.241,3.634,2.877,3.685,2.989a.28.28,0,0,1-.14.37.275.275,0,0,1-.112.028Z" transform="translate(-38.104 -46.08)" fill="#132342"/>
    <path id="Path_552" data-name="Path 552" d="M101.95,144.013a.28.28,0,0,1-.28-.258,3.4,3.4,0,0,1,.482-1.778.28.28,0,1,1,.488.275,2.911,2.911,0,0,0-.409,1.458.28.28,0,0,1-.258.3h0Z" transform="translate(-39.295 -46.753)" fill="#132342"/>
    <path id="Path_553" data-name="Path 553" d="M111.68,139.19s.763-1.565,1.952-.976a.387.387,0,0,1,.342-.365c.308,0,.348.959.348.959a6.73,6.73,0,0,0-2.642.381Z" transform="translate(-43.691 -45.009)" fill="#132342"/>
    <path id="Path_554" data-name="Path 554" d="M122.285,140.365s-.107-1.593-1.021-1.122a.365.365,0,0,0-.224-.325c-.348-.056-.409.858-.409.858A2.8,2.8,0,0,1,122.285,140.365Z" transform="translate(-47.622 -45.477)" fill="#132342"/>
    <ellipse id="Ellipse_28" data-name="Ellipse 28" cx="0.808" cy="0.656" rx="0.808" ry="0.656" transform="translate(69.002 96.805) rotate(-88.53)" fill="#132342"/>
    <circle id="Ellipse_29" data-name="Ellipse 29" cx="0.174" cy="0.174" r="0.174" transform="translate(69.651 95.902) rotate(-88.53)" fill="#fff"/>
    <ellipse id="Ellipse_30" data-name="Ellipse 30" cx="0.808" cy="0.656" rx="0.808" ry="0.656" transform="translate(72.859 96.905) rotate(-88.53)" fill="#132342"/>
    <circle id="Ellipse_31" data-name="Ellipse 31" cx="0.174" cy="0.174" r="0.174" transform="translate(73.507 96.001) rotate(-88.53)" fill="#fff"/>
    <path id="Path_555" data-name="Path 555" d="M118.129,146.063a1.684,1.684,0,0,1-.437-.056.29.29,0,0,1,.151-.561s.645.168.808-.224a.129.129,0,0,0,0-.1,1.026,1.026,0,0,0-.628-.191.28.28,0,0,1-.269-.286l.017-1.565a.28.28,0,0,1,.28-.275h0a.28.28,0,0,1,.275.286v1.324a1.178,1.178,0,0,1,.808.421.634.634,0,0,1,.034.617A1.049,1.049,0,0,1,118.129,146.063Z" transform="translate(-46.237 -47.187)" fill="#132342"/>
    <path id="Path_556" data-name="Path 556" d="M116.529,150.33a1.929,1.929,0,0,1-2.849-1.01Z" transform="translate(-44.57 -50.046)" fill="#fff"/>
    <path id="Path_557" data-name="Path 557" d="M344.273,392.889c-.213,3.163-.477,6.169-.477,6.169l-3.679-.5c-.073-2.109-.325-4.666-.561-6.887-.348-2.872-.707-5.177-.707-5.177,0-4.391,5.513-2.569,5.693-.337C344.61,387.208,344.458,390.085,344.273,392.889Z" transform="translate(-143.454 -153.022)" fill="#ecbdbb"/>
    <path id="Path_558" data-name="Path 558" d="M344.543,386.162c.084,1.049-.067,3.926-.247,6.73a10.245,10.245,0,0,1-4.739-1.206c-.348-2.872-.707-5.177-.707-5.177C338.856,382.107,344.341,383.918,344.543,386.162Z" transform="translate(-143.454 -153.025)" fill="#132342"/>
    <path id="Path_559" data-name="Path 559" d="M336.68,405.877a13.224,13.224,0,0,0-5.608.337s-.853,7.291-6.607,10.314c-4.6,2.423-3.976,6.472-3.976,6.472h10.959a11.583,11.583,0,0,0,3.309-5.463c.168,1.834.163,4.3.146,5.463h3.247a83.007,83.007,0,0,0-1.469-17.123Z" transform="translate(-135.378 -162.646)" fill="#132342"/>
    <path id="Path_560" data-name="Path 560" d="M354.271,331.839c-9.534,3.775-20.948.179-20.948.179s1.077-16.623.561-24-3.146-28.222-3.416-34.688.69-19.209,7.37-20.673c3.685-.808,9.439.359,10.331,10.875.286,3.365.527,7.5.785,11.974.107,1.845.213,3.741.337,5.67.494,8.02,1.122,16.466,2.2,23.073C353.464,316.3,354.271,331.839,354.271,331.839Z" transform="translate(-139.756 -95.337)" fill="#132342"/>
    <path id="Path_561" data-name="Path 561" d="M361.484,297.48c-3.034-2.21-3.214-7.93-3.214-7.93a2.636,2.636,0,0,0,2.877,2.243C361.282,293.655,361.388,295.551,361.484,297.48Z" transform="translate(-151.983 -111.629)" fill="#253555"/>
    <path id="Path_562" data-name="Path 562" d="M332.191,284.283h-.1a.28.28,0,0,1-.247-.308.292.292,0,0,1,.308-.252,1.581,1.581,0,0,0,1.155-.494c.561-.561,1.217-1.806,1.066-4.672a.28.28,0,0,1,.264-.3.275.275,0,0,1,.3.264c.129,2.49-.292,4.212-1.251,5.121A2.2,2.2,0,0,1,332.191,284.283Z" transform="translate(-140.379 -106.67)" fill="#253555"/>
    <path id="Path_563" data-name="Path 563" d="M347.751,392.033a52.009,52.009,0,0,1-10.039-1.06.287.287,0,1,1,.118-.561c.112,0,11.458,2.468,18.306-.258a.281.281,0,0,1,.208.522A23.593,23.593,0,0,1,347.751,392.033Z" transform="translate(-142.854 -155.801)" fill="#253555"/>
    <path id="Path_564" data-name="Path 564" d="M361.454,351.7h0a.28.28,0,0,1-.28-.28c.073-7.426-1.01-14.89-1.957-21.475-.269-1.851-.522-3.6-.735-5.272-.982-7.566-1.256-21.1-1.262-21.239a.28.28,0,0,1,.275-.286.269.269,0,0,1,.286.275c0,.135.28,13.645,1.256,21.183.213,1.683.465,3.41.735,5.261.953,6.607,2.036,14.094,1.963,21.559a.28.28,0,0,1-.28.275Z" transform="translate(-151.521 -117.601)" fill="#253555"/>
    <ellipse id="Ellipse_32" data-name="Ellipse 32" cx="3.859" cy="6.04" rx="3.859" ry="6.04" transform="matrix(0.999, -0.036, 0.036, 0.999, 194.994, 199.627)" fill="#253555"/>
    <path id="Path_565" data-name="Path 565" d="M421.419,398.956l-3.707.207c-.516-2.243-1.357-5-2.092-7.257-.8-2.462-1.481-4.335-1.481-4.335-.808-4.313,4.924-3.573,5.53-1.413a29.353,29.353,0,0,1,.561,3.129C420.8,393.163,421.419,398.956,421.419,398.956Z" transform="translate(-176.484 -153.296)" fill="#ecbdbb"/>
    <path id="Path_566" data-name="Path 566" d="M420.234,389.277a9.8,9.8,0,0,1-4.6,2.619c-.8-2.462-1.481-4.335-1.481-4.335-.808-4.313,4.924-3.573,5.53-1.413a29.353,29.353,0,0,1,.555,3.129Z" transform="translate(-176.488 -153.292)" fill="#132342"/>
    <path id="Path_567" data-name="Path 567" d="M415.569,405.877a13.224,13.224,0,0,0-5.608.337s-.852,7.291-6.607,10.314c-4.6,2.423-3.976,6.472-3.976,6.472H410.37a11.583,11.583,0,0,0,3.309-5.463c.168,1.834.163,4.3.146,5.463h3.247A83,83,0,0,0,415.569,405.877Z" transform="translate(-170.023 -162.646)" fill="#132342"/>
    <path id="Path_568" data-name="Path 568" d="M399.827,326.972a30.476,30.476,0,0,1-20.4,3.1c-2.159-11.5-12.984-39.366-17.386-50.151a39.261,39.261,0,0,1-1.615-4.9,2.674,2.674,0,0,1-2.5-1.167c-.667-1.413-1.122-11.593-1.122-11.593l2.406-.23c.4-4.8,1.89-8.615,4.487-9.921,4.487-2.243,12.131.561,14.649,9.074,1.985,6.73,7.914,21.48,12.675,34.873S399.827,326.972,399.827,326.972Z" transform="translate(-151.341 -94.862)" fill="#132342"/>
    <path id="Path_569" data-name="Path 569" d="M360.147,283.57a2.887,2.887,0,0,1-2.715-1.329c-.69-1.453-1.155-11.284-1.172-11.7a.28.28,0,0,1,.269-.292.275.275,0,0,1,.292.269c.129,2.8.561,10.37,1.122,11.486.449.942,1.761,1.021,2.339,1l-1.122-12.451a.28.28,0,0,1,.252-.3.286.286,0,0,1,.3.252l1.161,12.742a.28.28,0,0,1-.247.3,4.179,4.179,0,0,1-.482.017Z" transform="translate(-151.1 -103.153)" fill="#253555"/>
    <ellipse id="Ellipse_33" data-name="Ellipse 33" cx="4.178" cy="6.64" rx="4.178" ry="6.64" transform="translate(222.918 200.004) rotate(-14.44)" fill="#253555"/>
    <path id="Path_570" data-name="Path 570" d="M392.028,286.328a3.18,3.18,0,0,1-1.6-.4c-1.89-1.077-2.114-3.87-2.12-3.988a.28.28,0,0,1,.258-.3.286.286,0,0,1,.3.258s.213,2.619,1.84,3.545c.948.561,2.243.421,3.775-.359a.28.28,0,0,1,.252.5A6.169,6.169,0,0,1,392.028,286.328Z" transform="translate(-165.174 -108.155)" fill="#253555"/>
    <path id="Path_571" data-name="Path 571" d="M414.347,341.54a.28.28,0,0,1-.275-.23c-3.438-18.457-15.838-50.588-15.962-50.914a.28.28,0,0,1,.522-.2c.123.325,12.541,32.529,15.99,51.037a.28.28,0,0,1-.224.325h-.05Z" transform="translate(-169.473 -111.841)" fill="#253555"/>
    <path id="Path_572" data-name="Path 572" d="M399.011,386.365a.269.269,0,0,1-.292-.28.28.28,0,0,1,.28-.28h0c.151,0,11.7-.034,17.224-3.275a.28.28,0,1,1,.286.482C410.885,386.321,399.617,386.365,399.011,386.365Z" transform="translate(-169.746 -152.444)" fill="#253555"/>
    <path id="Path_573" data-name="Path 573" d="M320.051,180.811c-5.44,3.079-17.571,23.707-14.874,28.962s10.387,6.22,18.334-5.681C333.125,189.734,327.9,176.369,320.051,180.811Z" transform="translate(-128.497 -63.495)" fill="#f5f5f5"/>
    <path id="Path_574" data-name="Path 574" d="M330.17,264.59a57.539,57.539,0,0,0-.942,7.011c.067,1.615,10.987,3.3,19.551,3.3s19.753-3.505,19.753-5.188a45.349,45.349,0,0,0-1.009-6.136Z" transform="translate(-139.227 -100.224)" fill="#ddd"/>
    <path id="Path_575" data-name="Path 575" d="M337.509,268.329c-.51.045-.561,1.481-.774,2.9s-.337,2.462.3,2.563.74-1.957.909-2.8S338.317,268.261,337.509,268.329Z" transform="translate(-142.45 -102.308)" fill="#707070"/>
    <path id="Path_576" data-name="Path 576" d="M351,269.941c-.5.107-.342,1.542-.4,2.972s0,2.485.628,2.5.482-2.036.561-2.888S351.786,269.767,351,269.941Z" transform="translate(-148.606 -103.013)" fill="#707070"/>
    <path id="Path_577" data-name="Path 577" d="M377.694,269.041c-.482.163-.174,1.57-.073,3s.252,2.473.9,2.417.264-2.075.224-2.933S378.462,268.783,377.694,269.041Z" transform="translate(-160.397 -102.612)" fill="#707070"/>
    <path id="Path_578" data-name="Path 578" d="M365.216,270.259c-.494.123-.3,1.548-.308,2.984s.039,2.473.707,2.473.421-2.047.454-2.905S366,270.063,365.216,270.259Z" transform="translate(-154.884 -103.151)" fill="#707070"/>
    <path id="Path_579" data-name="Path 579" d="M389.187,266.456c-.46.219,0,1.576.286,2.984s.561,2.423,1.183,2.294,0-2.092-.129-2.939S389.922,266.108,389.187,266.456Z" transform="translate(-165.474 -101.468)" fill="#707070"/>
    <path id="Path_580" data-name="Path 580" d="M342.9,171.522c-5.934.359-13.887,5.564-13.887,5.564s-4.784,18.6-3.64,21.907a9.951,9.951,0,0,0,4.38,4.986s-2.8,17.325-2.361,19.955,6.876,4.044,18.469,4.044,21.228-2.995,21.032-4.582c-3.1-24.941-4.717-29.119-6.382-49.074A46.83,46.83,0,0,0,342.9,171.522Z" transform="translate(-137.458 -59.77)" fill="#f5f5f5"/>
    <path id="Path_581" data-name="Path 581" d="M339.047,223.266a.283.283,0,1,1-.078-.561,42.791,42.791,0,0,1,17.353-.415.278.278,0,1,1-.09.55c-10.1-1.654-17.033.376-17.1.4Z" transform="translate(-143.399 -81.805)" fill="#ddd"/>
    <path id="Path_582" data-name="Path 582" d="M389.772,239.357a.28.28,0,0,1-.28-.258c-.561-6.169-3.8-21.772-3.836-21.929a.287.287,0,0,1,.561-.118c.034.157,3.292,15.777,3.847,22a.28.28,0,0,1-.252.3h0Z" transform="translate(-164.006 -79.691)" fill="#ddd"/>
    <path id="Path_583" data-name="Path 583" d="M328.3,211.222a.28.28,0,0,1-.174-.056,9.574,9.574,0,0,1-3.242-4.3c-.768-2.243.942-10.718,2.513-17.465a.288.288,0,0,1,.561.129c-2.2,9.428-3.1,15.519-2.529,17.151a9.012,9.012,0,0,0,3.057,4.038.28.28,0,0,1-.185.5Z" transform="translate(-137.237 -67.552)" fill="#ddd"/>
    <path id="Path_584" data-name="Path 584" d="M351.653,170.489c-2.967.337-6.64,3.674-5.429,9.2,0,0,2.058-3.3,4.38-3.236s3.707,3.775,3.707,3.775a10.056,10.056,0,0,0,2.7-5.608C357.351,171.269,355.282,170.08,351.653,170.489Z" transform="translate(-146.588 -59.309)" fill="#f5f5f5"/>
    <path id="Path_585" data-name="Path 585" d="M354.1,181h-.062a.28.28,0,0,1-.2-.174c0-.034-1.346-3.533-3.455-3.6h-.062c-2.114,0-4.055,3.073-4.072,3.107a.28.28,0,0,1-.51-.09,8.065,8.065,0,0,1,1.683-7.353.28.28,0,1,1,.415.376,7.387,7.387,0,0,0-1.654,6.2c.723-.976,2.372-2.843,4.24-2.8,2.025.056,3.365,2.535,3.791,3.545a9.748,9.748,0,0,0,2.328-5.143,3.4,3.4,0,0,0-.875-3.045.28.28,0,1,1,.37-.421,3.913,3.913,0,0,1,1.066,3.522,10.241,10.241,0,0,1-2.8,5.8A.281.281,0,0,1,354.1,181Z" transform="translate(-146.374 -59.8)" fill="#ddd"/>
    <path id="Path_586" data-name="Path 586" d="M320.186,167a44.752,44.752,0,0,1-.4-6.338c.224-1.127,4.487-2.518,4.487-2.518l-.118-6.287a.869.869,0,0,1,.78-.858h0a.869.869,0,0,1,.931.729l1.784,11.049,1.89.494c.69,2.176-1.75,3.774-4.672,5.608Z" transform="translate(-135.059 -50.781)" fill="#ecbdbb"/>
    <path id="Path_587" data-name="Path 587" d="M324.312,163.74c2.7,0,4.487.752,3.819,4.19s-3.926,3.472-4.818,2.7a3.818,3.818,0,0,1-.841-2.563s-2.709-.18-2.653-1.812S322.612,163.729,324.312,163.74Z" transform="translate(-135.096 -56.379)" fill="#ecbdbb"/>
    <path id="Path_588" data-name="Path 588" d="M326.871,171.022h-.028a.28.28,0,0,1-.252-.308,4.044,4.044,0,0,0-.112-1.593,1.525,1.525,0,0,0-1.032-.976l-.7-.213a.292.292,0,0,1,.163-.561l.7.213a2.081,2.081,0,0,1,1.408,1.346,4.564,4.564,0,0,1,.135,1.817A.28.28,0,0,1,326.871,171.022Z" transform="translate(-137.167 -57.968)" fill="#132342"/>
    <path id="Path_589" data-name="Path 589" d="M329.921,169.022h-.028a.28.28,0,0,1-.252-.308,4.043,4.043,0,0,0-.112-1.593,1.52,1.52,0,0,0-1.032-.976l-.7-.213a.292.292,0,1,1,.163-.561l.7.213a2.081,2.081,0,0,1,1.408,1.346,4.565,4.565,0,0,1,.135,1.817A.28.28,0,0,1,329.921,169.022Z" transform="translate(-138.507 -57.09)" fill="#132342"/>
    <path id="Path_590" data-name="Path 590" d="M325.186,174.1a2.5,2.5,0,0,1-1.6-.482,3.8,3.8,0,0,1-.931-2.518,5,5,0,0,1-1.626-.488.28.28,0,1,1,.264-.494,4.74,4.74,0,0,0,1.655.449.28.28,0,0,1,.264.286,3.794,3.794,0,0,0,.746,2.344,2.552,2.552,0,0,0,2.243.168,3.231,3.231,0,0,0,2.114-2.709.286.286,0,0,1,.325-.224.28.28,0,0,1,.224.325,3.8,3.8,0,0,1-2.485,3.135A3.7,3.7,0,0,1,325.186,174.1Z" transform="translate(-135.556 -59.16)" fill="#132342"/>
    <path id="Path_591" data-name="Path 591" d="M332.609,171c-.836-.045-2.047,1.324-2.754,2.243a.937.937,0,0,0,.191,1.335h0a.937.937,0,0,0,.987.073c.667-.353,1.823-.97,2.451-1.368A1.3,1.3,0,0,0,332.609,171Z" transform="translate(-139.417 -59.566)" fill="#ecbdbb"/>
    <path id="Path_592" data-name="Path 592" d="M330.386,174.824a1.223,1.223,0,0,1-.965-1.969c.735-.942,1.795-2.109,2.664-2.311a.287.287,0,1,1,.123.561,5.749,5.749,0,0,0-2.35,2.109.645.645,0,0,0-.135.494.662.662,0,0,0,.959.494c.46-.241,1.324-.707,1.98-1.088a.28.28,0,1,1,.28.482c-.628.365-1.436.8-2,1.122A1.217,1.217,0,0,1,330.386,174.824Z" transform="translate(-139.202 -59.364)" fill="#132342"/>
    <path id="Path_593" data-name="Path 593" d="M318.4,194.75c-.886,7.246-3.365,12.748-6.124,15.586s-6.068,3.017-8.3-.662a10.03,10.03,0,0,1-1.049-2.529c-2.311-8.413,2.322-24.049,5.721-27.4a6.2,6.2,0,0,1,5.934-1.441C318.279,179.382,320.035,181.536,318.4,194.75Z" transform="translate(-127.404 -62.672)" fill="#f5f5f5"/>
    <path id="Path_594" data-name="Path 594" d="M322.642,208.663a.28.28,0,0,1-.23-.437c2.243-3.292,3.87-8.11,4.537-13.567,1.683-13.55-.353-15.188-3.617-16.147a.291.291,0,1,1,.157-.561c4.049,1.189,5.608,3.887,4.016,16.752-.679,5.541-2.322,10.449-4.633,13.814A.28.28,0,0,1,322.642,208.663Z" transform="translate(-136.214 -62.615)" fill="#ddd"/>
    <path id="Path_595" data-name="Path 595" d="M312.918,226.032a11.438,11.438,0,0,1-.129,2.17c-2.866,2.911-6.068,3.017-8.3-.662a10.029,10.029,0,0,1-1.049-2.529c.28-3.483,2.126-6.169,4.453-6.253C310.524,218.657,312.773,221.921,312.918,226.032Z" transform="translate(-127.904 -80.539)" fill="#ddd"/>
    <path id="Path_596" data-name="Path 596" d="M406.156,257.73l-.359,2.243.7.561.92-.561a.763.763,0,0,1,.83.039h0a.763.763,0,0,1,.191,1.054l-1.026,1.918s-4.352,1.122-4.375,1.054-1.211-4.672-1.324-5.418S406.156,257.73,406.156,257.73Z" transform="translate(-171.058 -97.655)" fill="#132342"/>
    <path id="Path_597" data-name="Path 597" d="M396.782,253.239s-1.615,4.851-1.346,5.608,5.4,4.246,6.136,4.515c.533.191,2.053-1.453,2.872-2.4a.864.864,0,0,0-.067-1.2h0a.869.869,0,0,0-1.043-.112l-1.122.673-1.856-1.924a17.209,17.209,0,0,0,.4-3.808C400.691,252.83,397.792,250.541,396.782,253.239Z" transform="translate(-168.291 -95.138)" fill="#ecbdbb"/>
    <path id="Path_598" data-name="Path 598" d="M406.516,209.351c-1.492,5.177-4.537,11.161-7.577,13.073-4.582,2.877-9.977-.9-10.247-4.851s3.326-11.217,3.326-11.217-7.375-8.015-11.346-15.681.353-15.754,3.505-14.29c6.994,3.247,17.229,15.233,21.374,22.254a13.246,13.246,0,0,1,1.817,4.077A17.8,17.8,0,0,1,406.516,209.351Z" transform="translate(-161.121 -61.856)" fill="#f5f5f5"/>
    <path id="Path_599" data-name="Path 599" d="M390.214,222.146a.281.281,0,0,1-.2-.084,6.214,6.214,0,0,1-1.828-3.825c-.252-3.69,2.715-10.05,3.27-11.217-1-1.122-7.6-8.525-11.217-15.558-2.978-5.743-1.346-11.486.757-13.724a.28.28,0,1,1,.409.381c-1.991,2.12-3.517,7.583-.667,13.085,3.892,7.521,11.217,15.5,11.279,15.58a.28.28,0,0,1,.045.314c-.034.073-3.561,7.257-3.3,11.088a5.653,5.653,0,0,0,1.683,3.472.28.28,0,0,1-.23.488Z" transform="translate(-160.915 -62.481)" fill="#ddd"/>
    <path id="Path_600" data-name="Path 600" d="M424.737,226.93c-2.294,0-4.15-2.417-4.167-5.4,0-2.58,1.363-4.745,3.225-5.294a13.246,13.246,0,0,1,1.817,4.077A18.328,18.328,0,0,1,424.737,226.93Z" transform="translate(-179.342 -79.434)" fill="#ddd"/>
    <path id="Path_601" data-name="Path 601" d="M403.008,227.9a.28.28,0,0,1-.185-.494,12.1,12.1,0,0,1,8.1-2.316.28.28,0,0,1,.269.292.269.269,0,0,1-.292.269,11.822,11.822,0,0,0-7.717,2.176A.28.28,0,0,1,403.008,227.9Z" transform="translate(-171.505 -83.317)" fill="#ddd"/>
    <path id="Path_602" data-name="Path 602" d="M357.248,171.307s-.942,1.413-2.187,1.346-1.481-.808-1.481-.808l.062-1.57.073-2.142,3.4-1.312.039,1.239Z" transform="translate(-149.923 -57.731)" fill="#ecbdbb"/>
    <path id="Path_603" data-name="Path 603" d="M357.187,168.025a3.82,3.82,0,0,1-3.516,2.21l.073-2.142,3.4-1.312Z" transform="translate(-149.963 -57.714)" fill="#132342"/>
    <circle id="Ellipse_34" data-name="Ellipse 34" cx="4.38" cy="4.38" r="4.38" transform="translate(208.02 90.951)" fill="#132342"/>
    <path id="Path_604" data-name="Path 604" d="M349.964,143.314c-4.487,1.06-4.178,9.977-2.361,13.146s7.212,1.683,8.491-3.169C357.58,147.695,356.5,141.766,349.964,143.314Z" transform="translate(-146.75 -47.299)" fill="#ecbdbb"/>
    <path id="Path_605" data-name="Path 605" d="M353.536,144.265a5.5,5.5,0,0,1,1.436,2.978,2.445,2.445,0,0,0,2.4,1.98h0s3.752-.623,2.434-6.91c-.78-3.724-6.371-6.035-10.684-1.89S353.536,144.265,353.536,144.265Z" transform="translate(-147.44 -45.171)" fill="#132342"/>
    <path id="Path_606" data-name="Path 606" d="M363.428,156.224s.707-2.866,3.365-2.243.774,6.068-3.674,4.178Z" transform="translate(-154.113 -52.054)" fill="#ecbdbb"/>
    <path id="Path_607" data-name="Path 607" d="M364.549,157.961h-.034a.28.28,0,0,1-.247-.308,2.961,2.961,0,0,1,2.922-2.563.269.269,0,0,1,.286.275.28.28,0,0,1-.275.286,2.372,2.372,0,0,0-2.378,2.07.28.28,0,0,1-.275.241Z" transform="translate(-154.616 -52.58)" fill="#132342"/>
    <path id="Path_608" data-name="Path 608" d="M366.9,158a.28.28,0,0,1-.28-.275h0a2.109,2.109,0,0,0-.561-1.2.28.28,0,1,1,.421-.37,2.63,2.63,0,0,1,.679,1.554.28.28,0,0,1-.275.286h0Z" transform="translate(-155.369 -53.003)" fill="#132342"/>
    <path id="Path_609" data-name="Path 609" d="M342.81,147.457a27.953,27.953,0,0,1,9.675.337s.774-2.933,1.957-4.077c0,0-.869-4.487-6.371-3.64C342.945,140.851,342.81,147.457,342.81,147.457Z" transform="translate(-145.193 -45.94)" fill="#132342"/>
    <path id="Path_610" data-name="Path 610" d="M356.608,155.621a2.636,2.636,0,0,0-2-1.5c-.286-.056-.426.864-.426.864A6.32,6.32,0,0,1,356.608,155.621Z" transform="translate(-150.186 -52.152)" fill="#132342"/>
    <path id="Path_611" data-name="Path 611" d="M347.25,155.716a2.288,2.288,0,0,1,1.324-1.239c.32-.079.292.847.292.847a2.658,2.658,0,0,0-1.615.393Z" transform="translate(-147.143 -52.308)" fill="#132342"/>
    <ellipse id="Ellipse_35" data-name="Ellipse 35" cx="0.763" cy="0.617" rx="0.763" ry="0.617" transform="matrix(0.09, -0.996, 0.996, 0.09, 203.967, 104.68)" fill="#132342"/>
    <circle id="Ellipse_36" data-name="Ellipse 36" cx="0.163" cy="0.163" r="0.163" transform="matrix(0.09, -0.996, 0.996, 0.09, 204.363, 103.846)" fill="#fff"/>
    <ellipse id="Ellipse_37" data-name="Ellipse 37" cx="0.766" cy="0.619" rx="0.766" ry="0.619" transform="translate(200.689 104.583) rotate(-84.857)" fill="#132342"/>
    <circle id="Ellipse_38" data-name="Ellipse 38" cx="0.163" cy="0.163" r="0.163" transform="matrix(0.09, -0.996, 0.996, 0.09, 201.307, 103.731)" fill="#fff"/>
    <path id="Path_612" data-name="Path 612" d="M350.54,161.5a1.071,1.071,0,0,1-1.122-.7c-.213-.735.864-2.036,1.082-2.288a.28.28,0,0,1,.426.365c-.561.617-1.054,1.475-.97,1.761s.707.286.712.286a.284.284,0,0,1,.084.561,1.526,1.526,0,0,1-.213.017Z" transform="translate(-148.083 -54.04)" fill="#132342"/>
    <path id="Path_613" data-name="Path 613" d="M350.7,165.709a1.835,1.835,0,0,0,2.8-.639Z" transform="translate(-148.658 -56.963)" fill="#fff"/>
  </g>
</svg>
