<svg xmlns="http://www.w3.org/2000/svg" width="13.125" height="17.5" viewBox="0 0 13.125 17.5">
  <g id="fi-rr-user" transform="translate(-3)">
    <path id="Path_1" data-name="Path 1" d="M10.375,8.75A4.375,4.375,0,1,0,6,4.375,4.375,4.375,0,0,0,10.375,8.75Zm0-7.292A2.917,2.917,0,1,1,7.458,4.375a2.917,2.917,0,0,1,2.917-2.917Z" transform="translate(-0.813 0)" fill="#132342"/>
    <path id="Path_2" data-name="Path 2" d="M9.562,14A6.57,6.57,0,0,0,3,20.562a.729.729,0,1,0,1.458,0,5.1,5.1,0,1,1,10.208,0,.729.729,0,0,0,1.458,0A6.57,6.57,0,0,0,9.562,14Z" transform="translate(0 -3.792)" fill="#132342"/>
  </g>
</svg>
